<svg width="105" height="15" viewBox="0 0 105 15" fill="none" xmlns="http://www.w3.org/2000/svg">
<path d="M14.7656 7.375C14.7656 9.17188 14.1797 10.7539 13.0078 12.1211C11.8359 13.4688 10.3809 14.2793 8.64258 14.5527V9.48438H10.3418L10.6641 7.375H8.64258V5.99805C8.64258 5.25586 9.0332 4.88477 9.81445 4.88477H10.7227V3.09766C10.1758 3 9.63867 2.95117 9.11133 2.95117C8.54492 2.95117 8.05664 3.05859 7.64648 3.27344C7.25586 3.48828 6.94336 3.81055 6.70898 4.24023C6.47461 4.66992 6.35742 5.17773 6.35742 5.76367V7.375H4.51172V9.48438H6.35742V14.5527C4.61914 14.2793 3.16406 13.4688 1.99219 12.1211C0.820312 10.7539 0.234375 9.17188 0.234375 7.375C0.234375 5.36328 0.9375 3.6543 2.34375 2.24805C3.76953 0.822266 5.48828 0.109375 7.5 0.109375C9.51172 0.109375 11.2207 0.822266 12.627 2.24805C14.0527 3.6543 14.7656 5.36328 14.7656 7.375ZM46.1133 3.50781C46.1719 3.74219 46.2207 4.03516 46.2598 4.38672C46.3184 4.73828 46.3574 5.08984 46.377 5.44141C46.3965 5.77344 46.4062 6.08594 46.4062 6.37891C46.4258 6.67188 46.4355 6.91602 46.4355 7.11133V7.375C46.4355 9.13281 46.3281 10.4316 46.1133 11.2715C46.0156 11.6035 45.8398 11.8965 45.5859 12.1504C45.332 12.4043 45.0293 12.5801 44.6777 12.6777C44.3066 12.7754 43.6035 12.8535 42.5684 12.9121C41.5332 12.9512 40.5859 12.9805 39.7266 13H38.4375C35.0977 13 33.0176 12.8926 32.1973 12.6777C31.4355 12.4629 30.957 11.9941 30.7617 11.2715C30.6641 10.9004 30.5859 10.3926 30.5273 9.74805C30.4883 9.08398 30.459 8.52734 30.4395 8.07812V7.375C30.4395 5.63672 30.5469 4.34766 30.7617 3.50781C30.8594 3.15625 31.0352 2.85352 31.2891 2.59961C31.543 2.3457 31.8457 2.16992 32.1973 2.07227C32.5684 1.97461 33.2715 1.90625 34.3066 1.86719C35.3418 1.80859 36.2891 1.76953 37.1484 1.75H38.4375C41.7773 1.75 43.8574 1.85742 44.6777 2.07227C45.0293 2.16992 45.332 2.3457 45.5859 2.59961C45.8398 2.85352 46.0156 3.15625 46.1133 3.50781ZM36.7969 9.77734L40.9863 7.375L36.7969 5.00195V9.77734ZM66.0645 5.00195C66.7285 4.33789 67.5293 4.00586 68.4668 4.00586C69.4043 4.00586 70.1953 4.33789 70.8398 5.00195C71.5039 5.64648 71.8359 6.4375 71.8359 7.375C71.8359 8.3125 71.5039 9.11328 70.8398 9.77734C70.1953 10.4219 69.4043 10.7441 68.4668 10.7441C67.5293 10.7441 66.7285 10.4219 66.0645 9.77734C65.4199 9.11328 65.0977 8.3125 65.0977 7.375C65.0977 6.4375 65.4199 5.64648 66.0645 5.00195ZM66.9141 8.92773C67.3438 9.35742 67.8613 9.57227 68.4668 9.57227C69.0723 9.57227 69.5898 9.35742 70.0195 8.92773C70.4492 8.49805 70.6641 7.98047 70.6641 7.375C70.6641 6.76953 70.4492 6.25195 70.0195 5.82227C69.5898 5.39258 69.0723 5.17773 68.4668 5.17773C67.8613 5.17773 67.3438 5.39258 66.9141 5.82227C66.4844 6.25195 66.2695 6.76953 66.2695 7.375C66.2695 7.98047 66.4844 8.49805 66.9141 8.92773ZM72.5098 3.33203C72.666 3.46875 72.7441 3.64453 72.7441 3.85938C72.7441 4.07422 72.666 4.25977 72.5098 4.41602C72.373 4.57227 72.1973 4.65039 71.9824 4.65039C71.7676 4.65039 71.582 4.57227 71.4258 4.41602C71.2695 4.25977 71.1914 4.07422 71.1914 3.85938C71.1914 3.64453 71.2695 3.46875 71.4258 3.33203C71.582 3.17578 71.7676 3.09766 71.9824 3.09766C72.1973 3.09766 72.373 3.17578 72.5098 3.33203ZM75 4.67969C75.0195 5.20703 75.0293 6.10547 75.0293 7.375C75.0293 8.64453 75.0195 9.54297 75 10.0703C74.9414 11.2617 74.5801 12.1895 73.916 12.8535C73.2715 13.498 72.3535 13.8398 71.1621 13.8789C70.6348 13.918 69.7363 13.9375 68.4668 13.9375C67.1973 13.9375 66.2988 13.918 65.7715 13.8789C64.5801 13.8203 63.6621 13.4688 63.0176 12.8242C62.7637 12.5898 62.5586 12.3164 62.4023 12.0039C62.2461 11.6914 62.1289 11.3887 62.0508 11.0957C61.9922 10.8027 61.9629 10.4609 61.9629 10.0703C61.9238 9.54297 61.9043 8.64453 61.9043 7.375C61.9043 6.10547 61.9238 5.19727 61.9629 4.65039C62.0215 3.47852 62.373 2.57031 63.0176 1.92578C63.6621 1.26172 64.5801 0.900391 65.7715 0.841797C66.2988 0.822266 67.1973 0.8125 68.4668 0.8125C69.7363 0.8125 70.6348 0.822266 71.1621 0.841797C72.3535 0.900391 73.2715 1.26172 73.916 1.92578C74.5801 2.57031 74.9414 3.48828 75 4.67969ZM73.5938 11.2422C73.6523 11.0859 73.7012 10.8906 73.7402 10.6562C73.7793 10.4023 73.8086 10.1094 73.8281 9.77734C73.8477 9.42578 73.8574 9.14258 73.8574 8.92773C73.8574 8.71289 73.8574 8.41016 73.8574 8.01953C73.8574 7.62891 73.8574 7.41406 73.8574 7.375C73.8574 7.31641 73.8574 7.10156 73.8574 6.73047C73.8574 6.33984 73.8574 6.03711 73.8574 5.82227C73.8574 5.60742 73.8477 5.33398 73.8281 5.00195C73.8086 4.65039 73.7793 4.35742 73.7402 4.12305C73.7012 3.86914 73.6523 3.66406 73.5938 3.50781C73.3594 2.90234 72.9395 2.48242 72.334 2.24805C72.1777 2.18945 71.9727 2.14062 71.7188 2.10156C71.4844 2.0625 71.1914 2.0332 70.8398 2.01367C70.5078 1.99414 70.2344 1.98438 70.0195 1.98438C69.8242 1.98438 69.5215 1.98438 69.1113 1.98438C68.7207 1.98438 68.5059 1.98438 68.4668 1.98438C68.4277 1.98438 68.2129 1.98438 67.8223 1.98438C67.4316 1.98438 67.1289 1.98438 66.9141 1.98438C66.6992 1.98438 66.416 1.99414 66.0645 2.01367C65.7324 2.0332 65.4395 2.0625 65.1855 2.10156C64.9512 2.14062 64.7559 2.18945 64.5996 2.24805C63.9941 2.48242 63.5742 2.90234 63.3398 3.50781C63.2812 3.66406 63.2324 3.86914 63.1934 4.12305C63.1543 4.35742 63.125 4.65039 63.1055 5.00195C63.0859 5.33398 63.0762 5.60742 63.0762 5.82227C63.0762 6.01758 63.0762 6.32031 63.0762 6.73047C63.0762 7.12109 63.0762 7.33594 63.0762 7.375C63.0762 7.45312 63.0762 7.63867 63.0762 7.93164C63.0762 8.20508 63.0762 8.43945 63.0762 8.63477C63.0762 8.81055 63.0762 9.04492 63.0762 9.33789C63.0957 9.63086 63.1152 9.88477 63.1348 10.0996C63.1543 10.2949 63.1836 10.5 63.2227 10.7148C63.2617 10.9297 63.3008 11.1055 63.3398 11.2422C63.5938 11.8477 64.0137 12.2676 64.5996 12.502C64.7559 12.5605 64.9512 12.6094 65.1855 12.6484C65.4395 12.6875 65.7324 12.7168 66.0645 12.7363C66.416 12.7559 66.6895 12.7656 66.8848 12.7656C67.0996 12.7656 67.4023 12.7656 67.793 12.7656C68.2031 12.7656 68.4277 12.7656 68.4668 12.7656C68.5254 12.7656 68.7402 12.7656 69.1113 12.7656C69.502 12.7656 69.8047 12.7656 70.0195 12.7656C70.2344 12.7656 70.5078 12.7559 70.8398 12.7363C71.1914 12.7168 71.4844 12.6875 71.7188 12.6484C71.9727 12.6094 72.1777 12.5605 72.334 12.502C72.9395 12.248 73.3594 11.8281 73.5938 11.2422ZM103.447 4.32812C103.467 4.40625 103.477 4.5332 103.477 4.70898C103.477 5.74414 103.281 6.7793 102.891 7.81445C102.5 8.83008 101.943 9.76758 101.221 10.627C100.518 11.4668 99.5996 12.1504 98.4668 12.6777C97.334 13.2051 96.084 13.4688 94.7168 13.4688C92.998 13.4688 91.4258 13.0098 90 12.0918C90.2148 12.1113 90.459 12.1211 90.7324 12.1211C92.1582 12.1211 93.4375 11.6816 94.5703 10.8027C93.8867 10.8027 93.2812 10.6074 92.7539 10.2168C92.2461 9.80664 91.8945 9.29883 91.6992 8.69336C91.8945 8.71289 92.0801 8.72266 92.2559 8.72266C92.5293 8.72266 92.8027 8.69336 93.0762 8.63477C92.6074 8.53711 92.1875 8.3418 91.8164 8.04883C91.4453 7.75586 91.1523 7.4043 90.9375 6.99414C90.7227 6.56445 90.6152 6.10547 90.6152 5.61719V5.55859C91.0449 5.8125 91.5039 5.94922 91.9922 5.96875C91.0742 5.34375 90.6152 4.48438 90.6152 3.39062C90.6152 2.84375 90.7617 2.32617 91.0547 1.83789C91.8164 2.79492 92.7441 3.55664 93.8379 4.12305C94.9512 4.68945 96.1328 5.00195 97.3828 5.06055C97.3438 4.82617 97.3242 4.5918 97.3242 4.35742C97.3242 3.51758 97.6172 2.79492 98.2031 2.18945C98.8086 1.58398 99.5312 1.28125 100.371 1.28125C101.27 1.28125 102.021 1.60352 102.627 2.24805C103.33 2.11133 103.984 1.86719 104.59 1.51562C104.355 2.23828 103.906 2.80469 103.242 3.21484C103.828 3.13672 104.414 2.9707 105 2.7168C104.57 3.3418 104.053 3.87891 103.447 4.32812Z" fill="#433840"/>
</svg>
