<svg width="225" height="73" viewBox="0 0 225 73" fill="none" xmlns="http://www.w3.org/2000/svg">
<path d="M10 65.3C8.56 65.3 7.28 65.12 6.16 64.76C5.04 64.4 3.99 63.79 3.01 62.93C2.47 62.45 2.2 61.92 2.2 61.34C2.2 60.88 2.37 60.48 2.71 60.14C3.05 59.78 3.46 59.6 3.94 59.6C4.32 59.6 4.66 59.72 4.96 59.96C5.76 60.62 6.54 61.1 7.3 61.4C8.06 61.7 8.96 61.85 10 61.85C11.12 61.85 12.08 61.6 12.88 61.1C13.7 60.6 14.11 59.98 14.11 59.24C14.11 58.34 13.71 57.64 12.91 57.14C12.11 56.62 10.84 56.23 9.1 55.97C4.72 55.33 2.53 53.29 2.53 49.85C2.53 48.59 2.86 47.5 3.52 46.58C4.18 45.64 5.08 44.93 6.22 44.45C7.36 43.95 8.63 43.7 10.03 43.7C11.29 43.7 12.47 43.89 13.57 44.27C14.69 44.65 15.62 45.15 16.36 45.77C16.94 46.23 17.23 46.76 17.23 47.36C17.23 47.82 17.06 48.23 16.72 48.59C16.38 48.93 15.98 49.1 15.52 49.1C15.22 49.1 14.95 49.01 14.71 48.83C14.19 48.41 13.46 48.03 12.52 47.69C11.6 47.33 10.77 47.15 10.03 47.15C8.77 47.15 7.79 47.39 7.09 47.87C6.41 48.33 6.07 48.94 6.07 49.7C6.07 50.56 6.42 51.21 7.12 51.65C7.84 52.09 8.96 52.45 10.48 52.73C12.2 53.03 13.57 53.42 14.59 53.9C15.63 54.36 16.41 55 16.93 55.82C17.45 56.62 17.71 57.69 17.71 59.03C17.71 60.29 17.35 61.4 16.63 62.36C15.93 63.3 14.99 64.03 13.81 64.55C12.63 65.05 11.36 65.3 10 65.3ZM49.3604 43.97C49.8604 43.97 50.2904 44.15 50.6504 44.51C51.0304 44.85 51.2204 45.28 51.2204 45.8V63.17C51.2204 63.69 51.0504 64.13 50.7104 64.49C50.3704 64.83 49.9204 65 49.3604 65C48.8004 65 48.3404 64.83 47.9804 64.49C47.6404 64.15 47.4704 63.71 47.4704 63.17V51.08L42.5204 58.64C42.3204 58.88 42.0904 59.08 41.8304 59.24C41.5704 59.38 41.3004 59.44 41.0204 59.42C40.7604 59.44 40.5004 59.38 40.2404 59.24C39.9804 59.08 39.7504 58.88 39.5504 58.64L34.6004 50.81V63.17C34.6004 63.71 34.4404 64.15 34.1204 64.49C33.8004 64.83 33.3804 65 32.8604 65C32.3604 65 31.9504 64.83 31.6304 64.49C31.3104 64.13 31.1504 63.69 31.1504 63.17V45.8C31.1504 45.3 31.3304 44.87 31.6904 44.51C32.0704 44.15 32.5204 43.97 33.0404 43.97C33.3404 43.97 33.6404 44.05 33.9404 44.21C34.2404 44.35 34.4704 44.54 34.6304 44.78L41.1704 54.83L47.8904 44.78C48.0504 44.54 48.2604 44.35 48.5204 44.21C48.8004 44.05 49.0804 43.97 49.3604 43.97ZM85.0505 54.5C85.0505 56.48 84.6105 58.3 83.7305 59.96C82.8505 61.6 81.6305 62.9 80.0705 63.86C78.5305 64.82 76.7905 65.3 74.8505 65.3C72.9105 65.3 71.1605 64.82 69.6005 63.86C68.0605 62.9 66.8505 61.6 65.9705 59.96C65.1105 58.3 64.6805 56.48 64.6805 54.5C64.6805 52.52 65.1105 50.71 65.9705 49.07C66.8505 47.41 68.0605 46.1 69.6005 45.14C71.1605 44.18 72.9105 43.7 74.8505 43.7C76.7905 43.7 78.5305 44.18 80.0705 45.14C81.6305 46.1 82.8505 47.41 83.7305 49.07C84.6105 50.71 85.0505 52.52 85.0505 54.5ZM81.1505 54.5C81.1505 53.16 80.8805 51.95 80.3405 50.87C79.8005 49.77 79.0505 48.9 78.0905 48.26C77.1305 47.62 76.0505 47.3 74.8505 47.3C73.6305 47.3 72.5405 47.62 71.5805 48.26C70.6405 48.88 69.9005 49.74 69.3605 50.84C68.8405 51.94 68.5805 53.16 68.5805 54.5C68.5805 55.84 68.8405 57.06 69.3605 58.16C69.9005 59.26 70.6405 60.13 71.5805 60.77C72.5405 61.39 73.6305 61.7 74.8505 61.7C76.0505 61.7 77.1305 61.38 78.0905 60.74C79.0505 60.1 79.8005 59.24 80.3405 58.16C80.8805 57.06 81.1505 55.84 81.1505 54.5ZM117.814 54.5C117.814 56.48 117.374 58.3 116.494 59.96C115.614 61.6 114.394 62.9 112.834 63.86C111.294 64.82 109.554 65.3 107.614 65.3C105.674 65.3 103.924 64.82 102.364 63.86C100.824 62.9 99.6141 61.6 98.7341 59.96C97.8741 58.3 97.4441 56.48 97.4441 54.5C97.4441 52.52 97.8741 50.71 98.7341 49.07C99.6141 47.41 100.824 46.1 102.364 45.14C103.924 44.18 105.674 43.7 107.614 43.7C109.554 43.7 111.294 44.18 112.834 45.14C114.394 46.1 115.614 47.41 116.494 49.07C117.374 50.71 117.814 52.52 117.814 54.5ZM113.914 54.5C113.914 53.16 113.644 51.95 113.104 50.87C112.564 49.77 111.814 48.9 110.854 48.26C109.894 47.62 108.814 47.3 107.614 47.3C106.394 47.3 105.304 47.62 104.344 48.26C103.404 48.88 102.664 49.74 102.124 50.84C101.604 51.94 101.344 53.16 101.344 54.5C101.344 55.84 101.604 57.06 102.124 58.16C102.664 59.26 103.404 60.13 104.344 60.77C105.304 61.39 106.394 61.7 107.614 61.7C108.814 61.7 109.894 61.38 110.854 60.74C111.814 60.1 112.564 59.24 113.104 58.16C113.644 57.06 113.914 55.84 113.914 54.5ZM144.472 44C145.012 44 145.452 44.16 145.792 44.48C146.132 44.8 146.302 45.22 146.302 45.74C146.302 46.26 146.132 46.68 145.792 47C145.452 47.3 145.012 47.45 144.472 47.45H139.762V63.17C139.762 63.69 139.572 64.13 139.192 64.49C138.812 64.83 138.342 65 137.782 65C137.222 65 136.762 64.83 136.402 64.49C136.042 64.13 135.862 63.69 135.862 63.17V47.45H131.152C130.612 47.45 130.172 47.29 129.832 46.97C129.492 46.65 129.322 46.23 129.322 45.71C129.322 45.21 129.492 44.8 129.832 44.48C130.192 44.16 130.632 44 131.152 44H144.472ZM174.661 44C175.221 44 175.671 44.17 176.011 44.51C176.351 44.85 176.521 45.29 176.521 45.83V63.17C176.521 63.69 176.341 64.13 175.981 64.49C175.621 64.83 175.161 65 174.601 65C174.101 65 173.671 64.83 173.311 64.49C172.951 64.13 172.771 63.69 172.771 63.17V56.18H163.201V63.17C163.201 63.69 163.011 64.13 162.631 64.49C162.251 64.83 161.811 65 161.311 65C160.771 65 160.321 64.83 159.961 64.49C159.621 64.13 159.451 63.69 159.451 63.17V45.83C159.451 45.31 159.631 44.88 159.991 44.54C160.351 44.18 160.811 44 161.371 44C161.871 44 162.301 44.18 162.661 44.54C163.021 44.88 163.201 45.31 163.201 45.83V52.73H172.771V45.83C172.771 45.31 172.961 44.88 173.341 44.54C173.721 44.18 174.161 44 174.661 44ZM194.764 63.17C194.764 63.69 194.574 64.13 194.194 64.49C193.814 64.83 193.374 65 192.874 65C192.334 65 191.884 64.83 191.524 64.49C191.184 64.13 191.014 63.69 191.014 63.17V45.83C191.014 45.31 191.194 44.88 191.554 44.54C191.914 44.18 192.374 44 192.934 44C193.434 44 193.864 44.18 194.224 44.54C194.584 44.88 194.764 45.31 194.764 45.83V63.17ZM221.155 61.55C221.675 61.55 222.105 61.73 222.445 62.09C222.805 62.43 222.985 62.83 222.985 63.29C222.985 63.79 222.805 64.2 222.445 64.52C222.105 64.84 221.675 65 221.155 65H211.105C210.585 65 210.145 64.83 209.785 64.49C209.445 64.13 209.275 63.69 209.275 63.17V45.83C209.275 45.31 209.445 44.88 209.785 44.54C210.145 44.18 210.585 44 211.105 44H221.155C221.675 44 222.105 44.17 222.445 44.51C222.805 44.83 222.985 45.25 222.985 45.77C222.985 46.27 222.815 46.68 222.475 47C222.135 47.3 221.695 47.45 221.155 47.45H213.025V52.55H219.805C220.325 52.55 220.755 52.72 221.095 53.06C221.455 53.38 221.635 53.8 221.635 54.32C221.635 54.82 221.465 55.23 221.125 55.55C220.785 55.85 220.345 56 219.805 56H213.025V61.55H221.155Z" fill="white"/>
<path d="M6.16 64.76L5.54798 66.6641L6.16 64.76ZM3.01 62.93L1.68125 64.4248L1.69082 64.4333L3.01 62.93ZM2.71 60.14L4.12421 61.5542L4.14441 61.534L4.16403 61.5132L2.71 60.14ZM4.96 59.96L6.23277 58.4173L6.22115 58.4077L6.20939 58.3983L4.96 59.96ZM12.88 61.1L11.8388 59.3924L11.8294 59.3982L11.82 59.404L12.88 61.1ZM12.91 57.14L11.82 58.8169L11.8349 58.8266L11.85 58.836L12.91 57.14ZM9.1 55.97L9.39557 53.9919L9.38917 53.991L9.1 55.97ZM3.52 46.58L5.14508 47.7458L5.15099 47.7376L5.15683 47.7293L3.52 46.58ZM6.22 44.45L6.99612 46.2933L7.00976 46.2875L7.02332 46.2816L6.22 44.45ZM13.57 44.27L12.917 46.1604L12.9274 46.164L13.57 44.27ZM16.36 45.77L15.0756 47.303L15.0962 47.3203L15.1172 47.337L16.36 45.77ZM16.72 48.59L18.1342 50.0042L18.1544 49.984L18.174 49.9632L16.72 48.59ZM14.71 48.83L13.4533 50.3859L13.4813 50.4084L13.51 50.43L14.71 48.83ZM12.52 47.69L11.7912 49.5525L11.8153 49.5619L11.8397 49.5708L12.52 47.69ZM7.09 47.87L8.21064 49.5266L8.22106 49.5195L7.09 47.87ZM7.12 51.65L6.05566 53.3433L6.06634 53.35L6.0771 53.3566L7.12 51.65ZM10.48 52.73L10.1177 54.6969L10.127 54.6986L10.1364 54.7003L10.48 52.73ZM14.59 53.9L13.7384 55.7096L13.7596 55.7196L13.781 55.7291L14.59 53.9ZM16.93 55.82L15.241 56.8911L15.247 56.9006L15.2531 56.91L16.93 55.82ZM16.63 62.36L15.03 61.16L15.0259 61.1655L16.63 62.36ZM13.81 64.55L14.5903 66.3915L14.6034 66.3859L14.6165 66.3802L13.81 64.55ZM10 63.3C8.72299 63.3 7.6557 63.14 6.77202 62.8559L5.54798 66.6641C6.9043 67.1 8.39702 67.3 10 67.3V63.3ZM6.77202 62.8559C5.93962 62.5884 5.12576 62.1258 4.32918 61.4267L1.69082 64.4333C2.85424 65.4542 4.14038 66.2116 5.54798 66.6641L6.77202 62.8559ZM4.33873 61.4352C4.21623 61.3263 4.18494 61.2654 4.18458 61.2646C4.18438 61.2642 4.18567 61.2667 4.18763 61.272C4.1896 61.2773 4.19188 61.2844 4.19396 61.2929C4.19843 61.3113 4.2 61.3282 4.2 61.34H0.2C0.2 62.6269 0.827365 63.6658 1.68127 64.4248L4.33873 61.4352ZM4.2 61.34C4.2 61.3629 4.19437 61.4156 4.16816 61.4773C4.1427 61.5372 4.11627 61.5622 4.12421 61.5542L1.29579 58.7258C0.59964 59.4219 0.2 60.3234 0.2 61.34H4.2ZM4.16403 61.5132C4.16972 61.5072 4.14141 61.5378 4.07648 61.5663C4.01018 61.5954 3.95657 61.6 3.94 61.6V57.6C2.89041 57.6 1.96031 58.021 1.25597 58.7668L4.16403 61.5132ZM3.94 61.6C3.91559 61.6 3.8695 61.5954 3.81436 61.576C3.7595 61.5566 3.72412 61.5325 3.71061 61.5217L6.20939 58.3983C5.55902 57.878 4.77956 57.6 3.94 57.6V61.6ZM3.68723 61.5027C4.60754 62.262 5.56631 62.8658 6.56567 63.2603L8.03433 59.5397C7.51369 59.3342 6.91246 58.978 6.23277 58.4173L3.68723 61.5027ZM6.56567 63.2603C7.61367 63.674 8.77431 63.85 10 63.85V59.85C9.14569 59.85 8.50633 59.726 8.03433 59.5397L6.56567 63.2603ZM10 63.85C11.4239 63.85 12.7669 63.5292 13.94 62.796L11.82 59.404C11.3931 59.6708 10.8161 59.85 10 59.85V63.85ZM13.9212 62.8076C15.1349 62.0676 16.11 60.8851 16.11 59.24H12.11C12.11 59.24 12.11 59.2388 12.1102 59.2363C12.1103 59.2338 12.1107 59.2304 12.1113 59.2261C12.1126 59.2172 12.1148 59.2066 12.1182 59.1952C12.1258 59.1703 12.1344 59.1566 12.1343 59.1568C12.1314 59.1611 12.0684 59.2524 11.8388 59.3924L13.9212 62.8076ZM16.11 59.24C16.11 57.6111 15.3206 56.2881 13.97 55.444L11.85 58.836C12.0176 58.9408 12.0633 59.0144 12.0735 59.0323C12.0814 59.0461 12.11 59.0967 12.11 59.24H16.11ZM14 55.4631C12.8344 54.7055 11.2194 54.2645 9.39557 53.992L8.80443 57.948C10.4606 58.1955 11.3856 58.5345 11.82 58.8169L14 55.4631ZM9.38917 53.991C7.41886 53.7031 6.22225 53.1361 5.53571 52.4966C4.90893 51.9127 4.53 51.1059 4.53 49.85H0.53C0.53 52.0341 1.24607 53.9673 2.80929 55.4234C4.31275 56.8239 6.40114 57.5969 8.81083 57.949L9.38917 53.991ZM4.53 49.85C4.53 48.9589 4.75617 48.2879 5.14508 47.7458L1.89492 45.4142C0.963835 46.7121 0.53 48.2211 0.53 49.85H4.53ZM5.15683 47.7293C5.58417 47.1206 6.17478 46.6391 6.99612 46.2933L5.44388 42.6067C3.98522 43.2209 2.77584 44.1594 1.88317 45.4307L5.15683 47.7293ZM7.02332 46.2816C7.88028 45.9057 8.87204 45.7 10.03 45.7V41.7C8.38796 41.7 6.83972 41.9943 5.41668 42.6184L7.02332 46.2816ZM10.03 45.7C11.0861 45.7 12.0437 45.8587 12.917 46.1604L14.223 42.3796C12.8963 41.9213 11.4939 41.7 10.03 41.7V45.7ZM12.9274 46.164C13.8641 46.4818 14.5627 46.8734 15.0756 47.303L17.6444 44.237C16.6773 43.4266 15.5159 42.8182 14.2126 42.376L12.9274 46.164ZM15.1172 47.337C15.2437 47.4373 15.2667 47.4885 15.258 47.4725C15.2534 47.4642 15.245 47.446 15.2384 47.4203C15.2318 47.3945 15.23 47.3729 15.23 47.36H19.23C19.23 46.0077 18.5378 44.9446 17.6028 44.203L15.1172 47.337ZM15.23 47.36C15.23 47.3511 15.2309 47.3344 15.2352 47.3121C15.2396 47.2896 15.2465 47.2671 15.255 47.2465C15.2733 47.2023 15.2882 47.1932 15.266 47.2168L18.174 49.9632C18.8353 49.2631 19.23 48.3719 19.23 47.36H15.23ZM15.3058 47.1758C15.2978 47.1837 15.3228 47.1573 15.3827 47.1318C15.4444 47.1056 15.4971 47.1 15.52 47.1V51.1C16.5366 51.1 17.4381 50.7004 18.1342 50.0042L15.3058 47.1758ZM15.52 47.1C15.5733 47.1 15.6452 47.1086 15.725 47.1351C15.8047 47.1617 15.8674 47.198 15.91 47.23L13.51 50.43C14.0962 50.8696 14.7873 51.1 15.52 51.1V47.1ZM15.9667 47.2741C15.2109 46.6636 14.2561 46.1911 13.2003 45.8092L11.8397 49.5708C12.6639 49.8689 13.1692 50.1564 13.4533 50.3859L15.9667 47.2741ZM13.2488 45.8275C12.1699 45.4053 11.0876 45.15 10.03 45.15V49.15C10.4524 49.15 11.0301 49.2547 11.7912 49.5525L13.2488 45.8275ZM10.03 45.15C8.55108 45.15 7.11731 45.4262 5.95894 46.2205L8.22106 49.5195C8.46269 49.3538 8.98892 49.15 10.03 49.15V45.15ZM5.96938 46.2134C4.79164 47.0101 4.07 48.2155 4.07 49.7H8.07C8.07 49.66 8.07435 49.6419 8.07487 49.6399C8.07517 49.6386 8.0741 49.6424 8.07196 49.6462C8.06491 49.6589 8.08459 49.6118 8.21062 49.5266L5.96938 46.2134ZM4.07 49.7C4.07 51.2143 4.7456 52.5198 6.05566 53.3433L8.18434 49.9567C8.13407 49.9251 8.10993 49.9023 8.10102 49.8931C8.09635 49.8882 8.0943 49.8855 8.09382 49.8848C8.09367 49.8846 8.09357 49.8845 8.09352 49.8844C8.09349 49.8844 8.09347 49.8843 8.09346 49.8843C8.09346 49.8843 8.09345 49.8843 8.09345 49.8843C8.09345 49.8843 8.09345 49.8843 8.09345 49.8843C8.09345 49.8843 8.09345 49.8843 8.09345 49.8843C8.09345 49.8843 8.09345 49.8843 8.09345 49.8843C8.09346 49.8843 8.09346 49.8843 8.09347 49.8843C8.09347 49.8844 8.09347 49.8843 8.09344 49.8843C8.09341 49.8842 8.09321 49.8839 8.09286 49.8831C8.09251 49.8823 8.09192 49.8809 8.09114 49.8789C8.08962 49.8748 8.08695 49.8669 8.08397 49.854C8.07806 49.8285 8.07 49.7794 8.07 49.7H4.07ZM6.0771 53.3566C7.11339 53.9898 8.52297 54.4031 10.1177 54.6969L10.8423 50.7631C9.39703 50.4969 8.56661 50.1901 8.1629 49.9434L6.0771 53.3566ZM10.1364 54.7003C11.7655 54.9844 12.9426 55.3352 13.7384 55.7096L15.4416 52.0904C14.1974 51.5048 12.6345 51.0756 10.8236 50.7597L10.1364 54.7003ZM13.781 55.7291C14.5225 56.057 14.9672 56.4593 15.241 56.8911L18.619 54.7489C17.8528 53.5407 16.7375 52.663 15.399 52.0709L13.781 55.7291ZM15.2531 56.91C15.4931 57.2792 15.71 57.9268 15.71 59.03H19.71C19.71 57.4532 19.4069 55.9608 18.6069 54.73L15.2531 56.91ZM15.71 59.03C15.71 59.8804 15.4768 60.5643 15.03 61.16L18.23 63.56C19.2232 62.2357 19.71 60.6996 19.71 59.03H15.71ZM15.0259 61.1655C14.5526 61.8011 13.8997 62.3249 13.0035 62.7198L14.6165 66.3802C16.0803 65.7351 17.3074 64.7989 18.2341 63.5545L15.0259 61.1655ZM13.0297 62.7085C12.1114 63.0976 11.1086 63.3 10 63.3V67.3C11.6114 67.3 13.1486 67.0024 14.5903 66.3915L13.0297 62.7085ZM50.6504 44.51L49.2362 45.9242L49.2754 45.9635L49.3168 46.0005L50.6504 44.51ZM50.7104 64.49L52.1246 65.9042L52.1448 65.884L52.1644 65.8632L50.7104 64.49ZM47.9804 64.49L46.5662 65.9042L46.5864 65.9244L46.6071 65.944L47.9804 64.49ZM47.4704 51.08H49.4704V44.3744L45.7972 49.9844L47.4704 51.08ZM42.5204 58.64L44.0568 59.9204L44.1306 59.8319L44.1936 59.7356L42.5204 58.64ZM41.8304 59.24L42.7786 61.0009L42.8294 60.9736L42.8786 60.9433L41.8304 59.24ZM41.0204 59.42L41.1629 57.4251L41.0149 57.4145L40.867 57.4259L41.0204 59.42ZM40.2404 59.24L39.1922 60.9433L39.2414 60.9736L39.2922 61.0009L40.2404 59.24ZM39.5504 58.64L37.8599 59.7087L37.93 59.8196L38.0139 59.9204L39.5504 58.64ZM34.6004 50.81L36.2909 49.7413L32.6004 43.9036V50.81H34.6004ZM31.6304 64.49L30.1356 65.8187L30.1545 65.84L30.174 65.8607L31.6304 64.49ZM31.6904 44.51L30.3149 43.0581L30.2953 43.0767L30.2762 43.0958L31.6904 44.51ZM33.9404 44.21L32.9992 45.9747L33.0463 45.9998L33.0946 46.0224L33.9404 44.21ZM34.6304 44.78L36.3067 43.6891L36.3007 43.6798L36.2945 43.6706L34.6304 44.78ZM41.1704 54.83L39.4941 55.9209L41.1477 58.462L42.833 55.9417L41.1704 54.83ZM47.8904 44.78L49.553 45.8917L49.5545 45.8894L47.8904 44.78ZM48.5204 44.21L49.4686 45.9709L49.4908 45.959L49.5127 45.9465L48.5204 44.21ZM49.3604 45.97C49.3649 45.97 49.3579 45.9704 49.3422 45.9673C49.3262 45.9642 49.3065 45.9586 49.2856 45.9499C49.2648 45.9412 49.2488 45.9318 49.2386 45.9249C49.2288 45.9181 49.2283 45.9163 49.2362 45.9242L52.0646 43.0958C51.3372 42.3684 50.4016 41.97 49.3604 41.97V45.97ZM49.3168 46.0005C49.317 46.0007 49.3069 45.9916 49.2923 45.9718C49.2774 45.9517 49.2618 45.9259 49.2485 45.8958C49.2196 45.8303 49.2204 45.7887 49.2204 45.8H53.2204C53.2204 44.7239 52.7975 43.7474 51.984 43.0195L49.3168 46.0005ZM49.2204 45.8V63.17H53.2204V45.8H49.2204ZM49.2204 63.17C49.2204 63.1908 49.2187 63.1987 49.2192 63.1963C49.2197 63.1934 49.2218 63.1835 49.2273 63.1692C49.2329 63.1547 49.2399 63.1411 49.2471 63.1299C49.2541 63.1188 49.2584 63.1146 49.2564 63.1168L52.1644 65.8632C52.874 65.112 53.2204 64.1724 53.2204 63.17H49.2204ZM49.2962 63.0758C49.309 63.063 49.3272 63.0476 49.35 63.0328C49.3729 63.0181 49.3943 63.0079 49.4111 63.0016C49.4458 62.9885 49.4379 63 49.3604 63V67C50.3565 67 51.3477 66.6811 52.1246 65.9042L49.2962 63.0758ZM49.3604 63C49.3215 63 49.2982 62.9971 49.2879 62.9953C49.278 62.9937 49.2793 62.993 49.2887 62.9965C49.2984 63.0001 49.3114 63.0061 49.3254 63.0148C49.3393 63.0235 49.3489 63.0315 49.3536 63.036L46.6071 65.944C47.3878 66.6813 48.3619 67 49.3604 67V63ZM49.3946 63.0758C49.4038 63.085 49.4172 63.1004 49.4312 63.1217C49.4452 63.1432 49.456 63.1649 49.4635 63.1842C49.4792 63.2249 49.4704 63.2288 49.4704 63.17H45.4704C45.4704 64.1692 45.8035 65.1416 46.5662 65.9042L49.3946 63.0758ZM49.4704 63.17V51.08H45.4704V63.17H49.4704ZM45.7972 49.9844L40.8472 57.5444L44.1936 59.7356L49.1436 52.1756L45.7972 49.9844ZM40.9839 57.3596C40.9194 57.4371 40.8533 57.4929 40.7822 57.5367L42.8786 60.9433C43.3275 60.6671 43.7214 60.3229 44.0568 59.9204L40.9839 57.3596ZM40.8822 57.4791C40.9031 57.4678 40.9429 57.4501 40.999 57.4376C41.0559 57.425 41.1126 57.4215 41.1629 57.4251L40.8779 61.4149C41.5564 61.4634 42.2028 61.311 42.7786 61.0009L40.8822 57.4791ZM40.867 57.4259C40.9439 57.42 41.0172 57.4267 41.0801 57.4412C41.1413 57.4553 41.1781 57.4734 41.1886 57.4791L39.2922 61.0009C39.8435 61.2978 40.4829 61.4673 41.1738 61.4141L40.867 57.4259ZM41.2886 57.5367C41.2175 57.4929 41.1514 57.4371 41.0868 57.3596L38.0139 59.9204C38.3494 60.3229 38.7433 60.6671 39.1922 60.9433L41.2886 57.5367ZM41.2409 57.5713L36.2909 49.7413L32.9099 51.8787L37.8599 59.7087L41.2409 57.5713ZM32.6004 50.81V63.17H36.6004V50.81H32.6004ZM32.6004 63.17C32.6004 63.2421 32.5899 63.2514 32.6008 63.2215C32.606 63.2071 32.6146 63.1884 32.6271 63.1681C32.6396 63.1477 32.6528 63.1312 32.664 63.1193L35.5768 65.8607C36.3005 65.0918 36.6004 64.1339 36.6004 63.17H32.6004ZM32.664 63.1193C32.6773 63.1052 32.6981 63.086 32.7267 63.0663C32.7554 63.0465 32.7858 63.0304 32.815 63.0186C32.876 62.9939 32.9008 63 32.8604 63V67C33.8625 67 34.8338 66.6501 35.5768 65.8607L32.664 63.1193ZM32.8604 63C32.8401 63 32.8772 62.9974 32.9439 63.025C33.0137 63.0539 33.0632 63.0943 33.0868 63.1193L30.174 65.8607C30.9009 66.633 31.8526 67 32.8604 67V63ZM33.1252 63.1613C33.1251 63.1611 33.1294 63.1661 33.1354 63.176C33.1414 63.1861 33.1464 63.1968 33.15 63.2065C33.1535 63.2161 33.1538 63.2201 33.1532 63.2162C33.1525 63.212 33.1504 63.1973 33.1504 63.17H29.1504C29.1504 64.1375 29.4631 65.0622 30.1356 65.8187L33.1252 63.1613ZM33.1504 63.17V45.8H29.1504V63.17H33.1504ZM33.1504 45.8C33.1504 45.7955 33.1507 45.8025 33.1477 45.8182C33.1446 45.8342 33.139 45.8539 33.1303 45.8748C33.1216 45.8956 33.1122 45.9115 33.1053 45.9217C33.0985 45.9316 33.0967 45.9321 33.1046 45.9242L30.2762 43.0958C29.5488 43.8232 29.1504 44.7588 29.1504 45.8H33.1504ZM33.0659 45.9619C33.0779 45.9505 33.0826 45.948 33.0792 45.9502C33.0755 45.9526 33.0674 45.9573 33.0557 45.962C33.044 45.9666 33.0341 45.9691 33.0284 45.9702C33.023 45.9712 33.0262 45.97 33.0404 45.97V41.97C32.0049 41.97 31.0636 42.3488 30.3149 43.0581L33.0659 45.9619ZM33.0404 45.97C33.0262 45.97 33.0129 45.969 33.0011 45.9675C32.9893 45.9659 32.9805 45.9639 32.9751 45.9625C32.9639 45.9595 32.9716 45.96 32.9992 45.9747L34.8816 42.4453C34.331 42.1516 33.7103 41.97 33.0404 41.97V45.97ZM33.0946 46.0224C33.1077 46.0285 33.0932 46.0234 33.0641 45.9994C33.0338 45.9744 32.9983 45.9374 32.9663 45.8894L36.2945 43.6706C35.9027 43.0829 35.3682 42.6692 34.7862 42.3976L33.0946 46.0224ZM32.9541 45.8709L39.4941 55.9209L42.8467 53.7391L36.3067 43.6891L32.9541 45.8709ZM42.833 55.9417L49.553 45.8917L46.2278 43.6683L39.5078 53.7183L42.833 55.9417ZM49.5545 45.8894C49.5446 45.9042 49.5294 45.9227 49.5097 45.9406C49.4902 45.9582 49.4744 45.9678 49.4686 45.9709L47.5722 42.4491C47.0309 42.7405 46.5724 43.1514 46.2263 43.6706L49.5545 45.8894ZM49.5127 45.9465C49.5278 45.9378 49.5199 45.9444 49.4898 45.953C49.4583 45.962 49.4136 45.97 49.3604 45.97V41.97C48.6825 41.97 48.0639 42.1674 47.5281 42.4735L49.5127 45.9465ZM83.7305 59.96L85.4928 60.9056L85.4975 60.8968L83.7305 59.96ZM80.0705 63.86L79.0223 62.1567L79.0125 62.1628L80.0705 63.86ZM69.6005 63.86L68.5424 65.5573L68.5523 65.5633L69.6005 63.86ZM65.9705 59.96L64.1946 60.88L64.2013 60.8929L64.2081 60.9056L65.9705 59.96ZM65.9705 49.07L64.2034 48.1332L64.1992 48.1412L65.9705 49.07ZM69.6005 45.14L68.5523 43.4367L68.5424 43.4428L69.6005 45.14ZM80.0705 45.14L79.0124 46.8373L79.0223 46.8433L80.0705 45.14ZM83.7305 49.07L81.9634 50.0068L81.9681 50.0156L83.7305 49.07ZM80.3405 50.87L78.5451 51.7513L78.5484 51.7579L78.5516 51.7644L80.3405 50.87ZM71.5805 48.26L72.6817 49.9296L72.6899 49.9241L71.5805 48.26ZM69.3605 50.84L67.5651 49.9587L67.5586 49.9719L67.5523 49.9852L69.3605 50.84ZM69.3605 58.16L67.5523 59.0148L67.5586 59.0281L67.5651 59.0413L69.3605 58.16ZM71.5805 60.77L70.4549 62.4232L70.475 62.4369L70.4954 62.4501L71.5805 60.77ZM78.0905 60.74L79.1999 62.4041L78.0905 60.74ZM80.3405 58.16L82.1293 59.0544L82.1326 59.0479L82.1358 59.0413L80.3405 58.16ZM83.0505 54.5C83.0505 56.1716 82.6822 57.6674 81.9634 59.0232L85.4975 60.8968C86.5388 58.9326 87.0505 56.7884 87.0505 54.5H83.0505ZM81.9681 59.0144C81.2523 60.3484 80.2765 61.3849 79.0223 62.1567L81.1187 65.5633C82.9845 64.4151 84.4486 62.8516 85.4928 60.9056L81.9681 59.0144ZM79.0125 62.1628C77.812 62.9111 76.4434 63.3 74.8505 63.3V67.3C77.1376 67.3 79.249 66.7289 81.1285 65.5572L79.0125 62.1628ZM74.8505 63.3C73.2577 63.3 71.8745 62.9111 70.6487 62.1567L68.5523 65.5633C70.4464 66.7289 72.5632 67.3 74.8505 67.3V63.3ZM70.6585 62.1628C69.4227 61.3924 68.4521 60.3549 67.7328 59.0144L64.2081 60.9056C65.2488 62.8451 66.6982 64.4076 68.5424 65.5572L70.6585 62.1628ZM67.7463 59.04C67.0423 57.6811 66.6805 56.1793 66.6805 54.5H62.6805C62.6805 56.7807 63.1786 58.9189 64.1946 60.88L67.7463 59.04ZM66.6805 54.5C66.6805 52.8205 67.0423 51.3326 67.7417 49.9988L64.1992 48.1412C63.1786 50.0874 62.6805 52.2195 62.6805 54.5H66.6805ZM67.7375 50.0068C68.4585 48.6468 69.4286 47.6039 70.6585 46.8372L68.5424 43.4428C66.6923 44.5961 65.2425 46.1732 64.2034 48.1332L67.7375 50.0068ZM70.6487 46.8433C71.8745 46.0889 73.2577 45.7 74.8505 45.7V41.7C72.5632 41.7 70.4464 42.2711 68.5523 43.4367L70.6487 46.8433ZM74.8505 45.7C76.4434 45.7 77.812 46.0889 79.0125 46.8372L81.1285 43.4428C79.249 42.2711 77.1376 41.7 74.8505 41.7V45.7ZM79.0223 46.8433C80.2705 47.6115 81.2459 48.6533 81.9634 50.0068L85.4975 48.1332C84.455 46.1667 82.9904 44.5885 81.1187 43.4367L79.0223 46.8433ZM81.9681 50.0156C82.6822 51.3463 83.0505 52.8283 83.0505 54.5H87.0505C87.0505 52.2117 86.5388 50.0737 85.4928 48.1244L81.9681 50.0156ZM83.1505 54.5C83.1505 52.884 82.8228 51.3626 82.1293 49.9756L78.5516 51.7644C78.9381 52.5374 79.1505 53.436 79.1505 54.5H83.1505ZM82.1358 49.9887C81.4503 48.5922 80.4719 47.4439 79.1999 46.5959L76.9811 49.9241C77.629 50.356 78.1507 50.9478 78.5451 51.7513L82.1358 49.9887ZM79.1999 46.5959C77.8977 45.7278 76.4286 45.3 74.8505 45.3V49.3C75.6723 49.3 76.3633 49.5122 76.9811 49.9241L79.1999 46.5959ZM74.8505 45.3C73.2595 45.3 71.7789 45.724 70.4711 46.5959L72.6899 49.9241C73.302 49.516 74.0015 49.3 74.8505 49.3V45.3ZM70.4793 46.5905C69.2159 47.4238 68.2479 48.5679 67.5651 49.9587L71.1558 51.7213C71.5531 50.9121 72.0651 50.3362 72.6817 49.9295L70.4793 46.5905ZM67.5523 49.9852C66.8937 51.3786 66.5805 52.8947 66.5805 54.5H70.5805C70.5805 53.4253 70.7873 52.5014 71.1686 51.6948L67.5523 49.9852ZM66.5805 54.5C66.5805 56.1053 66.8937 57.6214 67.5523 59.0148L71.1686 57.3052C70.7873 56.4986 70.5805 55.5747 70.5805 54.5H66.5805ZM67.5651 59.0413C68.2456 60.4274 69.2065 61.5732 70.4549 62.4232L72.7061 59.1168C72.0744 58.6868 71.5554 58.0926 71.1558 57.2787L67.5651 59.0413ZM70.4954 62.4501C71.8009 63.2932 73.2728 63.7 74.8505 63.7V59.7C73.9882 59.7 73.28 59.4868 72.6655 59.0899L70.4954 62.4501ZM74.8505 63.7C76.4286 63.7 77.8977 63.2722 79.1999 62.4041L76.9811 59.0759C76.3633 59.4878 75.6723 59.7 74.8505 59.7V63.7ZM79.1999 62.4041C80.4632 61.5619 81.4412 60.4307 82.1293 59.0544L78.5516 57.2656C78.1597 58.0493 77.6378 58.6381 76.9811 59.0759L79.1999 62.4041ZM82.1358 59.0413C82.8227 57.6421 83.1505 56.1165 83.1505 54.5H79.1505C79.1505 55.5635 78.9382 56.4779 78.5451 57.2787L82.1358 59.0413ZM116.494 59.96L118.256 60.9056L118.261 60.8968L116.494 59.96ZM112.834 63.86L111.786 62.1567L111.776 62.1628L112.834 63.86ZM102.364 63.86L101.306 65.5573L101.316 65.5633L102.364 63.86ZM98.7341 59.96L96.9583 60.88L96.965 60.8929L96.9718 60.9056L98.7341 59.96ZM98.7341 49.07L96.9671 48.1332L96.9629 48.1412L98.7341 49.07ZM102.364 45.14L101.316 43.4367L101.306 43.4428L102.364 45.14ZM112.834 45.14L111.776 46.8373L111.786 46.8433L112.834 45.14ZM116.494 49.07L114.727 50.0068L114.732 50.0156L116.494 49.07ZM113.104 50.87L111.309 51.7513L111.312 51.7579L111.315 51.7644L113.104 50.87ZM104.344 48.26L105.445 49.9296L105.454 49.9241L104.344 48.26ZM102.124 50.84L100.329 49.9587L100.322 49.9719L100.316 49.9852L102.124 50.84ZM102.124 58.16L100.316 59.0148L100.322 59.0281L100.329 59.0413L102.124 58.16ZM104.344 60.77L103.219 62.4232L103.239 62.4369L103.259 62.4501L104.344 60.77ZM110.854 60.74L111.964 62.4041L110.854 60.74ZM113.104 58.16L114.893 59.0544L114.896 59.0479L114.899 59.0413L113.104 58.16ZM115.814 54.5C115.814 56.1716 115.446 57.6674 114.727 59.0232L118.261 60.8968C119.302 58.9326 119.814 56.7884 119.814 54.5H115.814ZM114.732 59.0144C114.016 60.3484 113.04 61.3849 111.786 62.1567L113.882 65.5633C115.748 64.4151 117.212 62.8516 118.256 60.9056L114.732 59.0144ZM111.776 62.1628C110.576 62.9111 109.207 63.3 107.614 63.3V67.3C109.901 67.3 112.013 66.7289 113.892 65.5572L111.776 62.1628ZM107.614 63.3C106.021 63.3 104.638 62.9111 103.412 62.1567L101.316 65.5633C103.21 66.7289 105.327 67.3 107.614 67.3V63.3ZM103.422 62.1628C102.186 61.3924 101.216 60.3549 100.496 59.0144L96.9718 60.9056C98.0125 62.8451 99.4619 64.4076 101.306 65.5572L103.422 62.1628ZM100.51 59.04C99.806 57.6811 99.4441 56.1793 99.4441 54.5H95.4441C95.4441 56.7807 95.9423 58.9189 96.9583 60.88L100.51 59.04ZM99.4441 54.5C99.4441 52.8205 99.806 51.3326 100.505 49.9988L96.9629 48.1412C95.9423 50.0874 95.4441 52.2195 95.4441 54.5H99.4441ZM100.501 50.0068C101.222 48.6468 102.192 47.6039 103.422 46.8372L101.306 43.4428C99.456 44.5961 98.0062 46.1732 96.9671 48.1332L100.501 50.0068ZM103.412 46.8433C104.638 46.0889 106.021 45.7 107.614 45.7V41.7C105.327 41.7 103.21 42.2711 101.316 43.4367L103.412 46.8433ZM107.614 45.7C109.207 45.7 110.576 46.0889 111.776 46.8372L113.892 43.4428C112.013 42.2711 109.901 41.7 107.614 41.7V45.7ZM111.786 46.8433C113.034 47.6115 114.01 48.6533 114.727 50.0068L118.261 48.1332C117.219 46.1667 115.754 44.5885 113.882 43.4367L111.786 46.8433ZM114.732 50.0156C115.446 51.3463 115.814 52.8283 115.814 54.5H119.814C119.814 52.2117 119.302 50.0737 118.256 48.1244L114.732 50.0156ZM115.914 54.5C115.914 52.884 115.587 51.3626 114.893 49.9756L111.315 51.7644C111.702 52.5374 111.914 53.436 111.914 54.5H115.914ZM114.899 49.9887C114.214 48.5922 113.236 47.4439 111.964 46.5959L109.745 49.9241C110.393 50.356 110.914 50.9478 111.309 51.7513L114.899 49.9887ZM111.964 46.5959C110.661 45.7278 109.192 45.3 107.614 45.3V49.3C108.436 49.3 109.127 49.5122 109.745 49.9241L111.964 46.5959ZM107.614 45.3C106.023 45.3 104.543 45.724 103.235 46.5959L105.454 49.9241C106.066 49.516 106.765 49.3 107.614 49.3V45.3ZM103.243 46.5905C101.98 47.4238 101.012 48.5679 100.329 49.9587L103.919 51.7213C104.317 50.9121 104.829 50.3362 105.445 49.9295L103.243 46.5905ZM100.316 49.9852C99.6573 51.3786 99.3441 52.8947 99.3441 54.5H103.344C103.344 53.4253 103.551 52.5014 103.932 51.6948L100.316 49.9852ZM99.3441 54.5C99.3441 56.1053 99.6573 57.6214 100.316 59.0148L103.932 57.3052C103.551 56.4986 103.344 55.5747 103.344 54.5H99.3441ZM100.329 59.0413C101.009 60.4274 101.97 61.5732 103.219 62.4232L105.47 59.1168C104.838 58.6868 104.319 58.0926 103.919 57.2787L100.329 59.0413ZM103.259 62.4501C104.565 63.2932 106.036 63.7 107.614 63.7V59.7C106.752 59.7 106.044 59.4868 105.429 59.0899L103.259 62.4501ZM107.614 63.7C109.192 63.7 110.661 63.2722 111.964 62.4041L109.745 59.0759C109.127 59.4878 108.436 59.7 107.614 59.7V63.7ZM111.964 62.4041C113.227 61.5619 114.205 60.4307 114.893 59.0544L111.315 57.2656C110.923 58.0493 110.401 58.6381 109.745 59.0759L111.964 62.4041ZM114.899 59.0413C115.586 57.6421 115.914 56.1165 115.914 54.5H111.914C111.914 55.5635 111.702 56.4779 111.309 57.2787L114.899 59.0413ZM145.792 44.48L144.421 45.9364V45.9364L145.792 44.48ZM145.792 47L147.115 48.4997L147.139 48.4784L147.163 48.4564L145.792 47ZM139.762 47.45V45.45H137.762V47.45H139.762ZM139.192 64.49L140.525 65.9805L140.547 65.9615L140.567 65.9419L139.192 64.49ZM136.402 64.49L134.988 65.9042L135.008 65.9244L135.029 65.944L136.402 64.49ZM135.862 47.45H137.862V45.45H135.862V47.45ZM129.832 46.97L128.461 48.4264V48.4264L129.832 46.97ZM129.832 44.48L128.503 42.9852L128.482 43.0041L128.461 43.0236L129.832 44.48ZM144.472 46C144.544 46 144.553 46.0104 144.523 45.9996C144.509 45.9944 144.49 45.9858 144.47 45.9733C144.45 45.9608 144.433 45.9476 144.421 45.9364L147.163 43.0236C146.394 42.2999 145.436 42 144.472 42V46ZM144.421 45.9364C144.407 45.9231 144.388 45.9023 144.368 45.8737C144.348 45.8449 144.332 45.8146 144.32 45.7854C144.296 45.7244 144.302 45.6996 144.302 45.74H148.302C148.302 44.7379 147.952 43.7666 147.163 43.0236L144.421 45.9364ZM144.302 45.74C144.302 45.7804 144.296 45.7556 144.32 45.6946C144.332 45.6654 144.348 45.635 144.368 45.6063C144.388 45.5777 144.407 45.5569 144.421 45.5436L147.163 48.4564C147.952 47.7134 148.302 46.7421 148.302 45.74H144.302ZM144.469 45.5003C144.483 45.4878 144.5 45.4753 144.519 45.4645C144.537 45.4538 144.553 45.4475 144.562 45.4445C144.58 45.4382 144.557 45.45 144.472 45.45V49.45C145.401 49.45 146.342 49.1815 147.115 48.4997L144.469 45.5003ZM144.472 45.45H139.762V49.45H144.472V45.45ZM137.762 47.45V63.17H141.762V47.45H137.762ZM137.762 63.17C137.762 63.1777 137.761 63.1723 137.764 63.1567C137.767 63.1407 137.773 63.1199 137.783 63.0971C137.793 63.0744 137.804 63.0565 137.812 63.0445C137.821 63.0328 137.824 63.031 137.816 63.0381L140.567 65.9419C141.343 65.2071 141.762 64.2433 141.762 63.17H137.762ZM137.858 62.9995C137.855 63.0026 137.856 63.0013 137.861 62.9981C137.866 62.995 137.871 62.9928 137.874 62.9917C137.877 62.9908 137.873 62.9926 137.859 62.9948C137.846 62.9971 137.821 63 137.782 63V67C138.782 67 139.742 66.6818 140.525 65.9805L137.858 62.9995ZM137.782 63C137.743 63 137.72 62.9971 137.709 62.9953C137.699 62.9937 137.701 62.993 137.71 62.9965C137.72 63.0001 137.733 63.0061 137.747 63.0148C137.761 63.0235 137.77 63.0315 137.775 63.036L135.029 65.944C135.809 66.6813 136.783 67 137.782 67V63ZM137.816 63.0758C137.812 63.0713 137.815 63.0744 137.823 63.0861C137.831 63.0979 137.84 63.114 137.848 63.1327C137.856 63.1515 137.86 63.1669 137.861 63.1764C137.863 63.1855 137.862 63.1843 137.862 63.17H133.862C133.862 64.2077 134.244 65.1602 134.988 65.9042L137.816 63.0758ZM137.862 63.17V47.45H133.862V63.17H137.862ZM135.862 45.45H131.152V49.45H135.862V45.45ZM131.152 45.45C131.08 45.45 131.07 45.4396 131.1 45.4504C131.115 45.4556 131.133 45.4642 131.154 45.4767C131.174 45.4892 131.191 45.5024 131.203 45.5136L128.461 48.4264C129.23 49.1501 130.188 49.45 131.152 49.45V45.45ZM131.203 45.5136C131.217 45.5269 131.236 45.5477 131.256 45.5763C131.275 45.605 131.291 45.6354 131.303 45.6646C131.328 45.7256 131.322 45.7504 131.322 45.71H127.322C127.322 46.7121 127.672 47.6834 128.461 48.4264L131.203 45.5136ZM131.322 45.71C131.322 45.6897 131.325 45.7268 131.297 45.7935C131.268 45.8633 131.228 45.9129 131.203 45.9364L128.461 43.0236C127.689 43.7505 127.322 44.7022 127.322 45.71H131.322ZM131.161 45.9748C131.161 45.9747 131.156 45.979 131.146 45.985C131.136 45.991 131.125 45.996 131.115 45.9996C131.106 46.0031 131.102 46.0034 131.106 46.0028C131.11 46.0021 131.125 46 131.152 46V42C130.184 42 129.26 42.3127 128.503 42.9852L131.161 45.9748ZM131.152 46H144.472V42H131.152V46ZM175.981 64.49L177.354 65.944L177.375 65.9244L177.395 65.9042L175.981 64.49ZM173.311 64.49L171.897 65.9042L171.917 65.9244L171.938 65.944L173.311 64.49ZM172.771 56.18H174.771V54.18H172.771V56.18ZM163.201 56.18V54.18H161.201V56.18H163.201ZM162.631 64.49L163.965 65.9805L163.986 65.9615L164.007 65.9419L162.631 64.49ZM159.961 64.49L158.507 65.8632L158.546 65.9048L158.588 65.944L159.961 64.49ZM159.991 44.54L161.364 45.994L161.385 45.9744L161.405 45.9542L159.991 44.54ZM162.661 44.54L161.247 45.9542L161.267 45.9744L161.288 45.994L162.661 44.54ZM163.201 52.73H161.201V54.73H163.201V52.73ZM172.771 52.73V54.73H174.771V52.73H172.771ZM173.341 44.54L174.675 46.0305L174.696 46.0115L174.717 45.9919L173.341 44.54ZM174.661 46C174.739 46 174.747 46.0115 174.712 45.9984C174.695 45.9921 174.674 45.9819 174.651 45.9672C174.628 45.9524 174.61 45.937 174.597 45.9242L177.425 43.0958C176.648 42.3189 175.657 42 174.661 42V46ZM174.597 45.9242C174.588 45.915 174.574 45.8996 174.56 45.8782C174.546 45.8568 174.536 45.8351 174.528 45.8158C174.512 45.7751 174.521 45.7712 174.521 45.83H178.521C178.521 44.8308 178.188 43.8584 177.425 43.0958L174.597 45.9242ZM174.521 45.83V63.17H178.521V45.83H174.521ZM174.521 63.17C174.521 63.1843 174.52 63.1855 174.522 63.1764C174.523 63.1669 174.527 63.1515 174.535 63.1327C174.543 63.1139 174.552 63.0979 174.56 63.0861C174.568 63.0744 174.571 63.0713 174.567 63.0758L177.395 65.9042C178.139 65.1602 178.521 64.2077 178.521 63.17H174.521ZM174.608 63.036C174.613 63.0315 174.622 63.0235 174.636 63.0148C174.65 63.0061 174.663 63.0001 174.673 62.9965C174.682 62.993 174.684 62.9937 174.674 62.9953C174.663 62.9971 174.64 63 174.601 63V67C175.6 67 176.574 66.6813 177.354 65.944L174.608 63.036ZM174.601 63C174.59 63 174.59 62.9991 174.599 63.0007C174.608 63.0024 174.622 63.006 174.639 63.0126C174.656 63.0192 174.669 63.0266 174.679 63.0328C174.688 63.0389 174.69 63.0413 174.684 63.036L171.938 65.944C172.673 66.6384 173.596 67 174.601 67V63ZM174.725 63.0758C174.721 63.0713 174.725 63.0744 174.733 63.0861C174.741 63.0979 174.75 63.114 174.757 63.1327C174.765 63.1515 174.769 63.1669 174.771 63.1764C174.772 63.1855 174.771 63.1843 174.771 63.17H170.771C170.771 64.2077 171.153 65.1602 171.897 65.9042L174.725 63.0758ZM174.771 63.17V56.18H170.771V63.17H174.771ZM172.771 54.18H163.201V58.18H172.771V54.18ZM161.201 56.18V63.17H165.201V56.18H161.201ZM161.201 63.17C161.201 63.1777 161.201 63.1723 161.204 63.1567C161.207 63.1407 161.213 63.1199 161.223 63.0971C161.232 63.0744 161.243 63.0565 161.252 63.0445C161.26 63.0328 161.263 63.031 161.256 63.0381L164.007 65.9419C164.782 65.2071 165.201 64.2433 165.201 63.17H161.201ZM161.298 62.9995C161.284 63.0116 161.278 63.0155 161.279 63.0148C161.28 63.014 161.286 63.0106 161.295 63.0069C161.3 63.0052 161.304 63.0037 161.309 63.0025C161.313 63.0013 161.317 63.0005 161.319 63.0001C161.324 62.9991 161.322 63 161.311 63V67C162.314 67 163.226 66.6414 163.965 65.9805L161.298 62.9995ZM161.311 63C161.281 63 161.265 62.9977 161.262 62.997C161.258 62.9964 161.264 62.9971 161.275 63.0016C161.288 63.0061 161.301 63.0127 161.314 63.0207C161.326 63.0286 161.333 63.0348 161.334 63.036L158.588 65.944C159.354 66.6678 160.311 67 161.311 67V63ZM161.415 63.1168C161.413 63.1146 161.417 63.1188 161.424 63.1299C161.432 63.1411 161.439 63.1547 161.444 63.1692C161.45 63.1835 161.452 63.1934 161.452 63.1963C161.453 63.1987 161.451 63.1908 161.451 63.17H157.451C157.451 64.1724 157.798 65.112 158.507 65.8632L161.415 63.1168ZM161.451 63.17V45.83H157.451V63.17H161.451ZM161.451 45.83C161.451 45.8045 161.455 45.8334 161.431 45.8898C161.42 45.9159 161.407 45.94 161.392 45.9602C161.378 45.9802 161.367 45.9912 161.364 45.994L158.618 43.086C157.836 43.8245 157.451 44.7907 157.451 45.83H161.451ZM161.405 45.9542C161.403 45.9565 161.395 45.9644 161.38 45.9741C161.365 45.9839 161.349 45.9919 161.335 45.9975C161.321 46.003 161.314 46.0039 161.317 46.0033C161.321 46.0026 161.338 46 161.371 46V42C160.339 42 159.351 42.3514 158.577 43.1258L161.405 45.9542ZM161.371 46C161.376 46 161.369 46.0003 161.353 45.9973C161.337 45.9942 161.317 45.9886 161.296 45.9799C161.276 45.9712 161.26 45.9618 161.249 45.9549C161.24 45.9481 161.239 45.9463 161.247 45.9542L164.075 43.1258C163.348 42.3984 162.412 42 161.371 42V46ZM161.288 45.994C161.285 45.9912 161.274 45.9802 161.26 45.9602C161.246 45.94 161.232 45.9159 161.221 45.8898C161.198 45.8334 161.201 45.8045 161.201 45.83H165.201C165.201 44.7907 164.816 43.8245 164.034 43.086L161.288 45.994ZM161.201 45.83V52.73H165.201V45.83H161.201ZM163.201 54.73H172.771V50.73H163.201V54.73ZM174.771 52.73V45.83H170.771V52.73H174.771ZM174.771 45.83C174.771 45.8187 174.772 45.8603 174.743 45.9258C174.73 45.9559 174.714 45.9817 174.699 46.0018C174.685 46.0216 174.675 46.0307 174.675 46.0305L172.008 43.0495C171.194 43.7774 170.771 44.7539 170.771 45.83H174.771ZM174.717 45.9919C174.732 45.9774 174.739 45.9729 174.737 45.9741C174.735 45.9755 174.727 45.9805 174.713 45.9861C174.7 45.9917 174.686 45.9957 174.674 45.9981C174.662 46.0003 174.657 46 174.661 46V42C173.624 42 172.698 42.3944 171.966 43.0881L174.717 45.9919ZM194.194 64.49L195.527 65.9805L195.548 65.9615L195.569 65.9419L194.194 64.49ZM191.524 64.49L190.07 65.8632L190.109 65.9048L190.15 65.944L191.524 64.49ZM191.554 44.54L192.927 45.994L192.948 45.9744L192.968 45.9542L191.554 44.54ZM194.224 44.54L192.809 45.9542L192.83 45.9744L192.85 45.994L194.224 44.54ZM192.764 63.17C192.764 63.1777 192.763 63.1723 192.766 63.1567C192.769 63.1407 192.775 63.1199 192.785 63.0971C192.795 63.0744 192.806 63.0565 192.814 63.0445C192.823 63.0328 192.826 63.031 192.818 63.0381L195.569 65.9419C196.345 65.2071 196.764 64.2433 196.764 63.17H192.764ZM192.86 62.9995C192.847 63.0116 192.84 63.0155 192.841 63.0148C192.842 63.014 192.848 63.0106 192.858 63.0069C192.862 63.0052 192.867 63.0037 192.871 63.0025C192.876 63.0013 192.879 63.0005 192.882 63.0001C192.887 62.9991 192.885 63 192.874 63V67C193.876 67 194.789 66.6414 195.527 65.9805L192.86 62.9995ZM192.874 63C192.844 63 192.828 62.9977 192.824 62.997C192.82 62.9964 192.826 62.9971 192.838 63.0016C192.85 63.0061 192.864 63.0127 192.876 63.0207C192.889 63.0286 192.896 63.0348 192.897 63.036L190.15 65.944C190.917 66.6678 191.873 67 192.874 67V63ZM192.978 63.1168C192.976 63.1146 192.98 63.1188 192.987 63.1299C192.994 63.1411 193.001 63.1547 193.007 63.1692C193.012 63.1835 193.014 63.1934 193.015 63.1963C193.015 63.1987 193.014 63.1908 193.014 63.17H189.014C189.014 64.1724 189.36 65.112 190.07 65.8632L192.978 63.1168ZM193.014 63.17V45.83H189.014V63.17H193.014ZM193.014 45.83C193.014 45.8045 193.017 45.8334 192.994 45.8898C192.983 45.9159 192.969 45.94 192.955 45.9602C192.941 45.9802 192.93 45.9912 192.927 45.994L190.18 43.086C189.398 43.8245 189.014 44.7907 189.014 45.83H193.014ZM192.968 45.9542C192.966 45.9565 192.957 45.9644 192.942 45.9741C192.928 45.9839 192.912 45.9919 192.897 45.9975C192.883 46.003 192.877 46.0039 192.88 46.0033C192.884 46.0026 192.901 46 192.934 46V42C191.901 42 190.914 42.3514 190.139 43.1258L192.968 45.9542ZM192.934 46C192.938 46 192.931 46.0003 192.915 45.9973C192.899 45.9942 192.88 45.9886 192.859 45.9799C192.838 45.9712 192.822 45.9618 192.812 45.9549C192.802 45.9481 192.802 45.9463 192.809 45.9542L195.638 43.1258C194.91 42.3984 193.975 42 192.934 42V46ZM192.85 45.994C192.847 45.9912 192.836 45.9802 192.822 45.9602C192.808 45.94 192.795 45.9159 192.784 45.8898C192.76 45.8334 192.764 45.8045 192.764 45.83H196.764C196.764 44.7907 196.379 43.8245 195.597 43.086L192.85 45.994ZM192.764 45.83V63.17H196.764V45.83H192.764ZM222.445 62.09L220.991 63.4632L221.031 63.5048L221.072 63.544L222.445 62.09ZM222.445 64.52L221.117 63.0252L221.095 63.0441L221.075 63.0636L222.445 64.52ZM209.785 64.49L208.331 65.8632L208.371 65.9048L208.412 65.944L209.785 64.49ZM209.785 44.54L208.371 43.1258L209.785 44.54ZM222.445 44.51L221.031 45.9242L221.073 45.9658L221.117 46.0048L222.445 44.51ZM222.475 47L223.799 48.4997L223.823 48.4784L223.846 48.4564L222.475 47ZM213.025 47.45V45.45H211.025V47.45H213.025ZM213.025 52.55H211.025V54.55H213.025V52.55ZM221.095 53.06L219.681 54.4742L219.723 54.5158L219.767 54.5548L221.095 53.06ZM221.125 55.55L222.449 57.0497L222.473 57.0284L222.496 57.0064L221.125 55.55ZM213.025 56V54H211.025V56H213.025ZM213.025 61.55H211.025V63.55H213.025V61.55ZM221.155 63.55C221.181 63.55 221.152 63.5535 221.096 63.5299C221.07 63.519 221.045 63.5054 221.025 63.4912C221.005 63.4772 220.994 63.4662 220.991 63.4632L223.899 60.7168C223.161 59.9347 222.195 59.55 221.155 59.55V63.55ZM221.072 63.544C221.086 63.5575 221.057 63.5331 221.027 63.4657C220.995 63.3952 220.985 63.3289 220.985 63.29H224.985C224.985 62.2345 224.545 61.3216 223.819 60.636L221.072 63.544ZM220.985 63.29C220.985 63.2956 220.986 63.245 221.019 63.1685C221.053 63.0902 221.098 63.0419 221.117 63.0252L223.774 66.0148C224.579 65.2991 224.985 64.3365 224.985 63.29H220.985ZM221.075 63.0636C221.083 63.0558 221.097 63.0445 221.115 63.0328C221.134 63.0209 221.154 63.0118 221.17 63.0056C221.206 62.9922 221.209 63 221.155 63V67C222.122 67 223.062 66.6864 223.816 65.9764L221.075 63.0636ZM221.155 63H211.105V67H221.155V63ZM211.105 63C211.085 63 211.077 62.9983 211.079 62.9988C211.082 62.9993 211.092 63.0014 211.106 63.0069C211.121 63.0125 211.134 63.0195 211.146 63.0267C211.157 63.0337 211.161 63.038 211.159 63.036L208.412 65.944C209.163 66.6536 210.103 67 211.105 67V63ZM211.239 63.1168C211.237 63.1146 211.242 63.1188 211.249 63.1299C211.256 63.1411 211.263 63.1547 211.268 63.1692C211.274 63.1835 211.276 63.1934 211.277 63.1963C211.277 63.1987 211.275 63.1908 211.275 63.17H207.275C207.275 64.1724 207.622 65.112 208.331 65.8632L211.239 63.1168ZM211.275 63.17V45.83H207.275V63.17H211.275ZM211.275 45.83C211.275 45.7905 211.281 45.8063 211.263 45.8528C211.254 45.8745 211.243 45.8964 211.23 45.9163C211.217 45.936 211.205 45.9486 211.2 45.9542L208.371 43.1258C207.624 43.8733 207.275 44.8273 207.275 45.83H211.275ZM211.2 45.9542C211.204 45.9497 211.201 45.9536 211.189 45.9614C211.177 45.9695 211.161 45.9784 211.143 45.9861C211.124 45.9938 211.108 45.9977 211.099 45.9995C211.09 46.0012 211.091 46 211.105 46V42C210.068 42 209.115 42.3818 208.371 43.1258L211.2 45.9542ZM211.105 46H221.155V42H211.105V46ZM221.155 46C221.195 46 221.179 46.0058 221.133 45.9874C221.111 45.9788 221.089 45.9675 221.069 45.9543C221.049 45.9412 221.037 45.9299 221.031 45.9242L223.86 43.0958C223.112 42.3483 222.158 42 221.155 42V46ZM221.117 46.0048C221.089 45.9803 221.044 45.9277 221.012 45.8528C220.982 45.7818 220.985 45.7436 220.985 45.77H224.985C224.985 44.7299 224.598 43.7474 223.774 43.0152L221.117 46.0048ZM220.985 45.77C220.985 45.7903 220.983 45.7532 221.01 45.6865C221.039 45.6167 221.08 45.5671 221.105 45.5436L223.846 48.4564C224.618 47.7295 224.985 46.7778 224.985 45.77H220.985ZM221.152 45.5003C221.166 45.4878 221.183 45.4753 221.202 45.4645C221.221 45.4538 221.236 45.4475 221.245 45.4445C221.263 45.4382 221.241 45.45 221.155 45.45V49.45C222.085 49.45 223.026 49.1815 223.799 48.4997L221.152 45.5003ZM221.155 45.45H213.025V49.45H221.155V45.45ZM211.025 47.45V52.55H215.025V47.45H211.025ZM213.025 54.55H219.805V50.55H213.025V54.55ZM219.805 54.55C219.845 54.55 219.829 54.5558 219.783 54.5374C219.761 54.5288 219.739 54.5175 219.719 54.5043C219.699 54.4912 219.687 54.4799 219.681 54.4742L222.51 51.6458C221.762 50.8983 220.808 50.55 219.805 50.55V54.55ZM219.767 54.5548C219.739 54.5303 219.694 54.4777 219.662 54.4028C219.632 54.3318 219.635 54.2936 219.635 54.32H223.635C223.635 53.2799 223.248 52.2975 222.424 51.5652L219.767 54.5548ZM219.635 54.32C219.635 54.3403 219.633 54.3032 219.66 54.2365C219.689 54.1667 219.73 54.1171 219.755 54.0936L222.496 57.0064C223.268 56.2795 223.635 55.3278 223.635 54.32H219.635ZM219.802 54.0503C219.816 54.0378 219.833 54.0253 219.852 54.0145C219.871 54.0038 219.886 53.9975 219.895 53.9945C219.913 53.9882 219.891 54 219.805 54V58C220.735 58 221.676 57.7315 222.449 57.0497L219.802 54.0503ZM219.805 54H213.025V58H219.805V54ZM211.025 56V61.55H215.025V56H211.025ZM213.025 63.55H221.155V59.55H213.025V63.55Z" fill="#FEA3AC"/>
<path d="M41.833 20.3584C41.5726 20.3584 41.3203 20.4072 41.0762 20.5049C40.8483 20.6025 40.6204 20.7083 40.3926 20.8223C40.181 20.9199 39.9531 21.0176 39.709 21.1152C39.4811 21.1966 39.237 21.2373 38.9766 21.2373C38.5046 21.2373 38.2686 20.9769 38.2686 20.4561V20.4072C38.2686 20.391 38.2767 20.3747 38.293 20.3584L41.9795 19.2354C42.0283 18.5192 42.0365 17.8112 42.0039 17.1113C41.9876 16.3952 41.9714 15.7116 41.9551 15.0605C41.9388 14.3932 41.9469 13.7666 41.9795 13.1807C42.0283 12.5947 42.126 12.0495 42.2725 11.5449C42.4189 11.0404 42.6387 10.6009 42.9316 10.2266C43.2409 9.85221 43.6641 9.54297 44.2012 9.29883C44.3802 9.29883 44.5755 9.32324 44.7871 9.37207C45.015 9.4209 45.2184 9.50228 45.3975 9.61621C45.5765 9.71387 45.7311 9.85221 45.8613 10.0312C45.9915 10.194 46.0566 10.3812 46.0566 10.5928C45.3405 10.5928 44.7708 10.723 44.3477 10.9834C43.9408 11.2275 43.6315 11.5531 43.4199 11.96C43.2083 12.3669 43.0781 12.847 43.0293 13.4004C42.9805 13.9375 42.9642 14.5072 42.9805 15.1094C43.013 15.6953 43.0537 16.2894 43.1025 16.8916C43.1676 17.4938 43.2002 18.0635 43.2002 18.6006C43.7536 18.6006 44.2907 18.5436 44.8115 18.4297C45.3486 18.3158 45.8776 18.1937 46.3984 18.0635C46.9355 17.917 47.4727 17.7949 48.0098 17.6973C48.5469 17.5833 49.084 17.5264 49.6211 17.5264C50.0117 17.5264 50.207 17.7135 50.207 18.0879C50.207 18.2344 50.0687 18.3646 49.792 18.4785C49.5153 18.5924 49.1572 18.6982 48.7178 18.7959C48.2783 18.8773 47.79 18.9668 47.2529 19.0645C46.7158 19.1458 46.1787 19.2435 45.6416 19.3574C45.1208 19.4551 44.6325 19.5609 44.1768 19.6748C43.721 19.7887 43.363 19.9271 43.1025 20.0898C43.0212 20.7083 43.013 21.3268 43.0781 21.9453C43.1595 22.5475 43.2572 23.1497 43.3711 23.752C43.5013 24.3379 43.6234 24.932 43.7373 25.5342C43.8675 26.1201 43.9408 26.7061 43.957 27.292C43.957 27.4385 43.9245 27.6012 43.8594 27.7803C43.8105 27.943 43.7048 28.0244 43.542 28.0244C43.4118 28.0244 43.306 27.9756 43.2246 27.8779C43.1432 27.7803 43.07 27.6745 43.0049 27.5605C42.9561 27.4303 42.9154 27.3083 42.8828 27.1943C42.8503 27.0641 42.8258 26.9583 42.8096 26.877C42.6956 26.2747 42.5898 25.7132 42.4922 25.1924C42.3945 24.6553 42.305 24.1344 42.2236 23.6299C42.1585 23.109 42.1016 22.5882 42.0527 22.0674C42.0202 21.5465 41.9958 20.9769 41.9795 20.3584H41.833ZM49.084 18.6738L50.5244 24.6064H50.8174C50.8662 24.0856 50.9557 23.5322 51.0859 22.9463C51.2324 22.3604 51.4277 21.7826 51.6719 21.2129C51.916 20.627 52.2008 20.0654 52.5264 19.5283C52.8682 18.9912 53.2507 18.5192 53.6738 18.1123C54.097 17.7054 54.569 17.3799 55.0898 17.1357C55.627 16.8916 56.2129 16.7695 56.8477 16.7695C56.8477 17.1602 56.6849 17.502 56.3594 17.7949C56.0501 18.0879 55.6758 18.3727 55.2363 18.6494C54.7969 18.9261 54.3411 19.2191 53.8691 19.5283C53.4134 19.8376 53.0553 20.2119 52.7949 20.6514C52.5182 21.0908 52.2904 21.6035 52.1113 22.1895C51.9486 22.7591 51.8102 23.3532 51.6963 23.9717C51.5986 24.5739 51.5254 25.1842 51.4766 25.8027C51.4277 26.4049 51.387 26.9502 51.3545 27.4385C51.2568 27.585 51.151 27.7233 51.0371 27.8535C50.9395 27.9674 50.8092 28.0244 50.6465 28.0244C50.5814 28.0244 50.5 28.0081 50.4023 27.9756C50.3047 27.9268 50.2396 27.8372 50.207 27.707L48.4492 18.6738H49.084ZM58.4346 22.3359C58.0602 22.5638 57.6777 22.7428 57.2871 22.873C56.8965 22.987 56.5791 22.9056 56.335 22.6289C56.335 22.3197 56.4408 22.1162 56.6523 22.0186C56.8639 21.9046 57.0999 21.8151 57.3604 21.75C57.637 21.6849 57.9056 21.6035 58.166 21.5059C58.4427 21.4082 58.6299 21.2129 58.7275 20.9199C58.8252 20.5944 58.9147 20.2038 58.9961 19.748C59.0775 19.2923 59.1914 18.8529 59.3379 18.4297C59.4844 18.0065 59.696 17.6566 59.9727 17.3799C60.2493 17.0869 60.6318 16.9404 61.1201 16.9404C61.3968 16.9404 61.7386 17.0381 62.1455 17.2334C62.5687 17.4124 62.9674 17.6322 63.3418 17.8926C63.7161 18.153 64.0335 18.4297 64.2939 18.7227C64.5544 19.0156 64.6846 19.2842 64.6846 19.5283C64.6846 19.6423 64.6683 19.748 64.6357 19.8457C64.6195 19.9434 64.5381 20.0247 64.3916 20.0898L59.582 21.75L59.5576 21.8721C59.5576 21.9372 59.5495 22.0267 59.5332 22.1406V22.4336C59.5332 22.5475 59.5332 22.6289 59.5332 22.6777C59.5332 23.0033 59.5576 23.4102 59.6064 23.8984C59.6553 24.3704 59.7529 24.8343 59.8994 25.29C60.0622 25.7295 60.2819 26.112 60.5586 26.4375C60.8353 26.763 61.2096 26.9258 61.6816 26.9258C61.8607 26.9258 62.0072 26.8932 62.1211 26.8281C62.2513 26.7467 62.3734 26.6654 62.4873 26.584C62.6175 26.4863 62.7396 26.4049 62.8535 26.3398C62.9837 26.2585 63.1302 26.2178 63.293 26.2178C63.293 26.4619 63.236 26.6979 63.1221 26.9258C63.0244 27.1374 62.8861 27.3245 62.707 27.4873C62.528 27.6501 62.3245 27.7803 62.0967 27.8779C61.8688 27.9756 61.641 28.0244 61.4131 28.0244C60.7946 28.0244 60.2982 27.8128 59.9238 27.3896C59.5495 26.9502 59.2565 26.4294 59.0449 25.8271C58.8496 25.2087 58.7113 24.582 58.6299 23.9473C58.5485 23.2962 58.4834 22.7591 58.4346 22.3359ZM61.4131 18.0146C61.1201 18.0146 60.8678 18.096 60.6562 18.2588C60.4609 18.4215 60.2982 18.625 60.168 18.8691C60.0378 19.1133 59.9401 19.3818 59.875 19.6748C59.8262 19.9515 59.8018 20.2038 59.8018 20.4316C60.0622 20.4316 60.347 20.4154 60.6562 20.3828C60.9818 20.3503 61.2992 20.2852 61.6084 20.1875C61.9176 20.0898 62.1943 19.9678 62.4385 19.8213C62.6989 19.6585 62.8779 19.4632 62.9756 19.2354C62.7314 18.8447 62.5036 18.5436 62.292 18.332C62.0804 18.1204 61.7874 18.0146 61.4131 18.0146ZM66.9307 27.1699C66.9307 26.9746 66.9469 26.8118 66.9795 26.6816C67.012 26.5352 67.0609 26.4375 67.126 26.3887C67.2074 26.3236 67.2969 26.3236 67.3945 26.3887C67.5085 26.4375 67.6468 26.5677 67.8096 26.7793C68.1025 26.7793 68.4443 26.763 68.835 26.7305C69.2256 26.6979 69.6325 26.641 70.0557 26.5596C70.4788 26.4782 70.8939 26.3724 71.3008 26.2422C71.724 26.112 72.0902 25.9411 72.3994 25.7295C72.7249 25.5016 72.9854 25.2412 73.1807 24.9482C73.376 24.639 73.4736 24.2809 73.4736 23.874C73.4736 23.4671 73.2865 23.166 72.9121 22.9707C72.5378 22.7754 72.0576 22.6289 71.4717 22.5312C70.902 22.4173 70.2835 22.3115 69.6162 22.2139C68.9652 22.0999 68.3548 21.9372 67.7852 21.7256C67.2155 21.4977 66.7354 21.1803 66.3447 20.7734C65.9704 20.3503 65.7832 19.7643 65.7832 19.0156C65.7832 18.4948 65.8727 18.0553 66.0518 17.6973C66.2308 17.3392 66.5319 17.0055 66.9551 16.6963C67.1341 16.5498 67.4515 16.3219 67.9072 16.0127C68.363 15.6872 68.8431 15.3454 69.3477 14.9873C69.8685 14.613 70.3568 14.2712 70.8125 13.9619C71.2682 13.6364 71.5856 13.4085 71.7646 13.2783C71.7972 13.2783 71.8379 13.2783 71.8867 13.2783C71.9518 13.262 72.0007 13.2539 72.0332 13.2539C72.4401 13.2539 72.6436 13.4492 72.6436 13.8398C72.6436 14.0189 72.4971 14.2142 72.2041 14.4258C71.9111 14.6211 71.5368 14.8408 71.0811 15.085C70.6416 15.3291 70.1615 15.5895 69.6406 15.8662C69.1361 16.1429 68.6559 16.4521 68.2002 16.7939C67.7607 17.1195 67.3945 17.4775 67.1016 17.8682C66.8086 18.2425 66.6621 18.6494 66.6621 19.0889C66.6621 19.5609 66.776 19.9027 67.0039 20.1143C67.248 20.3258 67.6061 20.5049 68.0781 20.6514C68.2734 20.7002 68.6071 20.7979 69.0791 20.9443C69.5674 21.0745 70.0801 21.221 70.6172 21.3838C71.1706 21.5303 71.6833 21.6686 72.1553 21.7988C72.6436 21.929 72.9854 22.0186 73.1807 22.0674C73.6038 22.2952 73.9456 22.5475 74.2061 22.8242C74.4827 23.0846 74.6211 23.4508 74.6211 23.9229C74.6211 24.3786 74.499 24.7936 74.2549 25.168C74.027 25.5423 73.7178 25.8841 73.3271 26.1934C72.9528 26.4863 72.5133 26.7549 72.0088 26.999C71.5205 27.2269 71.0241 27.4222 70.5195 27.585C70.015 27.7314 69.5186 27.8454 69.0303 27.9268C68.5583 27.9919 68.1351 28.0244 67.7607 28.0244C67.4027 28.0244 67.1748 27.9756 67.0771 27.8779C66.9795 27.764 66.9307 27.528 66.9307 27.1699ZM75.5244 9.20117L76.5742 9.03027L77.6973 22.3359C77.8112 21.7826 77.9821 21.1803 78.21 20.5293C78.4378 19.8783 78.7389 19.2842 79.1133 18.7471C79.5039 18.21 79.9759 17.7949 80.5293 17.502C81.099 17.1927 81.7581 17.1113 82.5068 17.2578C83.0277 17.3392 83.4753 17.5426 83.8496 17.8682C84.2402 18.1774 84.5739 18.5599 84.8506 19.0156C85.1273 19.4714 85.347 19.9759 85.5098 20.5293C85.6888 21.0664 85.8271 21.6198 85.9248 22.1895C86.0225 22.7428 86.0876 23.2799 86.1201 23.8008C86.1689 24.3216 86.1934 24.7773 86.1934 25.168C86.1934 25.5098 86.1608 25.7458 86.0957 25.876C86.0469 25.9899 85.9004 26.0469 85.6562 26.0469C85.5423 26.0469 85.4284 26.0387 85.3145 26.0225C85.2005 25.9899 85.1191 25.8923 85.0703 25.7295C85.1029 25.4202 85.1191 25.0133 85.1191 24.5088C85.1191 24.0042 85.0866 23.4834 85.0215 22.9463C84.9727 22.4092 84.8831 21.8721 84.7529 21.335C84.6227 20.7816 84.4355 20.2852 84.1914 19.8457C83.9635 19.4062 83.6624 19.0563 83.2881 18.7959C82.9137 18.5192 82.4661 18.3809 81.9453 18.3809C81.4082 18.3809 80.9362 18.5029 80.5293 18.7471C80.1387 18.9749 79.805 19.276 79.5283 19.6504C79.2679 20.0247 79.0563 20.4479 78.8936 20.9199C78.7308 21.3757 78.6169 21.8477 78.5518 22.3359C78.5518 22.4661 78.5355 22.6777 78.5029 22.9707C78.4867 23.2474 78.4622 23.5648 78.4297 23.9229C78.3971 24.2646 78.3727 24.639 78.3564 25.0459C78.3402 25.4365 78.3239 25.8109 78.3076 26.1689C78.2913 26.5107 78.2751 26.82 78.2588 27.0967C78.2588 27.3734 78.2588 27.5768 78.2588 27.707C78.21 27.8698 78.1367 27.9674 78.0391 28C77.9414 28.0163 77.8275 28.0244 77.6973 28.0244C77.681 28.0244 77.6322 28.0163 77.5508 28C77.4857 28 77.4368 28 77.4043 28L75.5244 9.20117ZM100.842 27.1455C100.939 26.7386 101.053 26.2829 101.184 25.7783C101.33 25.2575 101.46 24.7122 101.574 24.1426C101.688 23.5729 101.786 23.0033 101.867 22.4336C101.965 21.8477 102.014 21.2943 102.014 20.7734C102.014 20.3991 101.916 20.0898 101.721 19.8457C101.525 19.6016 101.273 19.3818 100.964 19.1865C100.671 18.9912 100.345 18.8122 99.9873 18.6494C99.6455 18.4704 99.32 18.2913 99.0107 18.1123C98.7178 17.917 98.4736 17.7135 98.2783 17.502C98.083 17.2741 97.9854 17.0055 97.9854 16.6963C97.9854 16.6637 97.9854 16.6149 97.9854 16.5498C98.0016 16.4847 98.0098 16.4359 98.0098 16.4033C98.2865 16.1104 98.6283 15.736 99.0352 15.2803C99.4583 14.8245 99.9059 14.3851 100.378 13.9619C100.866 13.5387 101.371 13.1807 101.892 12.8877C102.412 12.5785 102.917 12.4238 103.405 12.4238C103.438 12.4238 103.495 12.4645 103.576 12.5459C103.658 12.6273 103.698 12.6924 103.698 12.7412V13.9863C103.698 14.8815 103.641 15.7686 103.527 16.6475C103.43 17.5264 103.381 18.4134 103.381 19.3086V19.7725C103.381 19.9678 103.389 20.0736 103.405 20.0898L105.676 22.3359C105.676 22.3522 105.7 22.3685 105.749 22.3848C105.814 22.3848 105.863 22.3848 105.896 22.3848C106.107 22.3848 106.294 22.3359 106.457 22.2383C106.62 22.1406 106.774 22.0348 106.921 21.9209C107.084 21.807 107.238 21.7012 107.385 21.6035C107.548 21.5059 107.727 21.457 107.922 21.457C108.329 21.457 108.532 21.6605 108.532 22.0674C108.532 22.2952 108.459 22.458 108.312 22.5557C108.182 22.6533 108.02 22.7428 107.824 22.8242C107.645 22.9056 107.45 22.9951 107.238 23.0928C107.043 23.1742 106.896 23.3044 106.799 23.4834L108.776 25.4609C108.809 25.4772 108.785 25.5586 108.703 25.7051C108.638 25.8516 108.565 25.9574 108.483 26.0225C108.483 26.0387 108.435 26.0469 108.337 26.0469H108.239C108.223 26.0469 108.215 26.0387 108.215 26.0225C108.133 25.9574 108.003 25.8434 107.824 25.6807C107.645 25.5179 107.45 25.347 107.238 25.168C107.027 24.9727 106.823 24.7936 106.628 24.6309C106.449 24.4681 106.319 24.3623 106.237 24.3135C106.205 24.2809 106.115 24.2321 105.969 24.167C105.822 24.1019 105.725 24.0612 105.676 24.0449C105.529 24.1426 105.334 24.3135 105.09 24.5576C104.846 24.8018 104.577 25.0703 104.284 25.3633C104.007 25.6562 103.715 25.9655 103.405 26.291C103.112 26.6003 102.827 26.8851 102.551 27.1455C102.274 27.3896 102.022 27.6012 101.794 27.7803C101.566 27.943 101.387 28.0244 101.257 28.0244H101.184C101.167 28.0244 101.151 28.0163 101.135 28C101.118 27.9674 101.094 27.9105 101.062 27.8291C101.029 27.7477 100.996 27.6663 100.964 27.585C100.931 27.5036 100.899 27.4222 100.866 27.3408C100.85 27.2594 100.842 27.1943 100.842 27.1455ZM99.6943 16.6963C100.085 17.1195 100.492 17.5182 100.915 17.8926C101.354 18.2669 101.81 18.6087 102.282 18.918C102.299 18.7715 102.331 18.5029 102.38 18.1123C102.429 17.7054 102.478 17.2741 102.526 16.8184C102.591 16.3626 102.648 15.9395 102.697 15.5488C102.762 15.1419 102.811 14.8652 102.844 14.7188V14.5479C102.844 14.3851 102.811 14.2305 102.746 14.084C102.697 13.9212 102.591 13.8398 102.429 13.8398C102.168 13.8398 101.875 13.9456 101.55 14.1572C101.241 14.3525 100.948 14.5967 100.671 14.8896C100.41 15.1826 100.183 15.4919 99.9873 15.8174C99.792 16.1429 99.6943 16.4359 99.6943 16.6963ZM103.112 21.2129C102.884 21.4733 102.714 21.7744 102.6 22.1162C102.486 22.458 102.404 22.8079 102.355 23.166C102.307 23.5241 102.274 23.8903 102.258 24.2646C102.258 24.639 102.258 24.9889 102.258 25.3145C102.258 25.347 102.258 25.4202 102.258 25.5342C102.274 25.6481 102.282 25.7132 102.282 25.7295L105.09 23.1904L103.112 21.2129ZM120.983 18.918C120.983 18.8203 120.983 18.7064 120.983 18.5762C121 18.446 121.016 18.3239 121.032 18.21C121.065 18.0798 121.122 17.974 121.203 17.8926C121.285 17.8112 121.398 17.7705 121.545 17.7705C121.577 17.7705 121.626 17.7786 121.691 17.7949C121.773 17.7949 121.83 17.7949 121.862 17.7949C121.879 18.9505 121.936 20.1387 122.033 21.3594C122.147 22.5801 122.367 23.7601 122.692 24.8994C122.709 24.7204 122.749 24.4193 122.814 23.9961C122.896 23.5566 122.977 23.1009 123.059 22.6289C123.156 22.1406 123.246 21.6849 123.327 21.2617C123.425 20.8385 123.49 20.5374 123.522 20.3584C123.636 20.0166 123.791 19.6667 123.986 19.3086C124.182 18.9342 124.418 18.5924 124.694 18.2832C124.987 17.974 125.305 17.7217 125.646 17.5264C126.005 17.3311 126.379 17.2334 126.77 17.2334C127.421 17.2334 127.998 17.3799 128.503 17.6729C129.007 17.9658 129.455 18.3564 129.846 18.8447C130.253 19.3167 130.594 19.862 130.871 20.4805C131.148 21.0827 131.376 21.7012 131.555 22.3359C131.734 22.9707 131.864 23.5811 131.945 24.167C132.027 24.7529 132.067 25.2738 132.067 25.7295V26.0225C132.067 26.1201 132.051 26.2178 132.019 26.3154C132.002 26.3968 131.962 26.4701 131.896 26.5352C131.848 26.584 131.75 26.6084 131.604 26.6084C131.441 26.6084 131.302 26.5107 131.188 26.3154C131.172 25.9085 131.123 25.4365 131.042 24.8994C130.977 24.3623 130.879 23.8008 130.749 23.2148C130.635 22.6126 130.472 22.0267 130.261 21.457C130.065 20.8711 129.813 20.3503 129.504 19.8945C129.211 19.4388 128.861 19.0726 128.454 18.7959C128.047 18.5029 127.559 18.3564 126.989 18.3564C126.534 18.3564 126.135 18.4378 125.793 18.6006C125.467 18.7633 125.191 18.9912 124.963 19.2842C124.735 19.5609 124.548 19.8945 124.401 20.2852C124.271 20.6595 124.174 21.0664 124.108 21.5059C124.06 21.7337 123.994 22.1406 123.913 22.7266C123.832 23.3125 123.742 23.9391 123.645 24.6064C123.547 25.2738 123.457 25.9004 123.376 26.4863C123.311 27.0723 123.27 27.4792 123.254 27.707C123.205 27.8698 123.116 27.9674 122.985 28C122.871 28.0326 122.749 28.0488 122.619 28.0488C122.603 28.0488 122.562 28.0407 122.497 28.0244C122.432 28.0244 122.399 28.0163 122.399 28L121.008 19.5283C121.008 19.4958 121 19.4062 120.983 19.2598C120.983 19.1133 120.983 18.9993 120.983 18.918ZM133.117 25.4609C133.117 24.9889 133.166 24.403 133.264 23.7031C133.378 23.0033 133.532 22.279 133.728 21.5303C133.939 20.7653 134.2 20.0003 134.509 19.2354C134.834 18.4704 135.201 17.7868 135.607 17.1846C136.014 16.5661 136.478 16.0697 136.999 15.6953C137.52 15.321 138.09 15.1338 138.708 15.1338C138.708 15.3617 138.61 15.5895 138.415 15.8174C138.236 16.029 138.024 16.2406 137.78 16.4521C137.552 16.6475 137.316 16.8428 137.072 17.0381C136.828 17.2171 136.657 17.388 136.56 17.5508C136.169 18.0553 135.819 18.6169 135.51 19.2354C135.201 19.8376 134.932 20.4642 134.704 21.1152C134.476 21.75 134.297 22.4092 134.167 23.0928C134.037 23.7601 133.972 24.4111 133.972 25.0459C133.972 25.1436 133.988 25.2982 134.021 25.5098C134.053 25.7051 134.094 25.9085 134.143 26.1201C134.208 26.3317 134.289 26.5189 134.387 26.6816C134.484 26.8281 134.59 26.9014 134.704 26.9014H134.777C134.794 26.9014 134.81 26.8932 134.826 26.877C135.266 26.3887 135.632 25.8597 135.925 25.29C136.218 24.7204 136.47 24.1344 136.682 23.5322C136.893 22.9137 137.072 22.2871 137.219 21.6523C137.365 21.0176 137.512 20.391 137.658 19.7725C137.707 19.5934 137.723 19.3249 137.707 18.9668C137.707 18.6087 137.723 18.2588 137.756 17.917C137.805 17.5752 137.894 17.2822 138.024 17.0381C138.155 16.7777 138.391 16.6475 138.732 16.6475C138.798 16.6475 138.871 16.6556 138.952 16.6719C139.05 16.6719 139.099 16.68 139.099 16.6963C139.701 17.9495 140.214 19.0156 140.637 19.8945C141.06 20.7572 141.418 21.4733 141.711 22.043C142.004 22.6126 142.24 23.0602 142.419 23.3857C142.598 23.7113 142.728 23.9635 142.81 24.1426C142.907 24.3053 142.972 24.4193 143.005 24.4844C143.037 24.5332 143.054 24.5739 143.054 24.6064C143.07 24.6715 143.086 24.7936 143.103 24.9727C143.119 25.1354 143.127 25.3145 143.127 25.5098C143.143 25.6888 143.151 25.8678 143.151 26.0469C143.168 26.2096 143.176 26.3154 143.176 26.3643C143.013 26.3643 142.834 26.3561 142.639 26.3398C142.443 26.3236 142.305 26.2178 142.224 26.0225L139.099 19.5283L138.83 19.2354C138.781 19.4144 138.684 19.7318 138.537 20.1875C138.407 20.6432 138.26 21.1315 138.098 21.6523C137.951 22.1569 137.813 22.637 137.683 23.0928C137.552 23.5485 137.463 23.8659 137.414 24.0449C137.316 24.2891 137.186 24.6309 137.023 25.0703C136.877 25.5098 136.69 25.9492 136.462 26.3887C136.234 26.8281 135.974 27.2106 135.681 27.5361C135.388 27.8617 135.062 28.0244 134.704 28.0244C134.411 28.0244 134.167 27.9349 133.972 27.7559C133.776 27.5605 133.614 27.3245 133.483 27.0479C133.353 26.7712 133.256 26.4863 133.19 26.1934C133.142 25.9004 133.117 25.6562 133.117 25.4609ZM147.937 20.3584C147.578 20.3584 147.22 20.4072 146.862 20.5049C146.504 20.6025 146.146 20.7083 145.788 20.8223C145.446 20.9199 145.096 21.0176 144.738 21.1152C144.396 21.1966 144.038 21.2373 143.664 21.2373C143.452 21.2373 143.282 21.1966 143.151 21.1152C143.021 21.0339 142.956 20.8711 142.956 20.627C142.956 20.4316 143.005 20.3014 143.103 20.2363C143.216 20.1549 143.347 20.1143 143.493 20.1143C143.656 20.098 143.819 20.098 143.981 20.1143C144.16 20.1305 144.299 20.1224 144.396 20.0898C144.527 20.0573 144.763 20.0003 145.104 19.9189C145.463 19.8376 145.837 19.7562 146.228 19.6748C146.618 19.5934 146.984 19.512 147.326 19.4307C147.684 19.3493 147.928 19.2842 148.059 19.2354C148.059 19.1865 148.059 19.1051 148.059 18.9912C148.075 18.861 148.083 18.7308 148.083 18.6006C148.099 18.4541 148.107 18.3239 148.107 18.21V17.9414C148.107 17.4531 148.075 16.9811 148.01 16.5254C147.945 16.0534 147.871 15.5814 147.79 15.1094C147.725 14.6374 147.66 14.1654 147.595 13.6934C147.53 13.2214 147.497 12.7493 147.497 12.2773C147.497 12.1146 147.513 11.96 147.546 11.8135C147.595 11.6507 147.725 11.5693 147.937 11.5693C148.018 11.5693 148.099 11.5938 148.181 11.6426C148.278 11.6751 148.335 11.7484 148.352 11.8623L149.206 18.918C149.222 18.9342 149.239 18.9424 149.255 18.9424H149.328C149.491 18.9424 149.743 18.9017 150.085 18.8203C150.427 18.7389 150.809 18.6413 151.232 18.5273C151.656 18.4134 152.103 18.2913 152.575 18.1611C153.063 18.0309 153.527 17.917 153.967 17.8193C154.406 17.7054 154.805 17.624 155.163 17.5752C155.521 17.5101 155.798 17.502 155.993 17.5508C156.058 17.5671 156.164 17.6484 156.311 17.7949C156.457 17.9251 156.547 18.0228 156.579 18.0879C156.612 18.2507 156.473 18.4134 156.164 18.5762C155.855 18.7227 155.448 18.8691 154.943 19.0156C154.455 19.1458 153.91 19.2679 153.308 19.3818C152.705 19.4958 152.128 19.6016 151.574 19.6992C151.037 19.7806 150.573 19.862 150.183 19.9434C149.792 20.0085 149.556 20.0573 149.475 20.0898V20.5781C149.475 20.7897 149.466 21.0257 149.45 21.2861C149.45 21.5303 149.45 21.7663 149.45 21.9941V22.4824C149.45 23.3125 149.507 24.1263 149.621 24.9238C149.735 25.7051 149.792 26.4945 149.792 27.292C149.792 27.4059 149.759 27.5036 149.694 27.585C149.629 27.6501 149.548 27.7152 149.45 27.7803C149.353 27.8291 149.255 27.8779 149.157 27.9268C149.06 27.9593 148.986 27.9837 148.938 28C148.807 27.3001 148.71 26.6654 148.645 26.0957C148.596 25.5098 148.555 24.932 148.522 24.3623C148.506 23.7926 148.482 23.1904 148.449 22.5557C148.433 21.9046 148.4 21.1722 148.352 20.3584H147.937ZM157.775 28C157.466 28.1139 157.181 28.0895 156.921 27.9268C156.677 27.7477 156.457 27.4873 156.262 27.1455C156.066 26.7874 155.896 26.3887 155.749 25.9492C155.603 25.4935 155.489 25.0459 155.407 24.6064C155.326 24.167 155.269 23.7682 155.236 23.4102C155.22 23.0521 155.228 22.7917 155.261 22.6289C155.261 22.4661 155.269 22.2139 155.285 21.8721C155.301 21.5303 155.318 21.1478 155.334 20.7246C155.35 20.2852 155.367 19.8376 155.383 19.3818C155.415 18.9098 155.44 18.4541 155.456 18.0146C155.472 17.5752 155.489 17.1927 155.505 16.8672C155.521 16.5254 155.529 16.2731 155.529 16.1104C155.562 16.1104 155.586 16.1022 155.603 16.0859L155.676 16.0615C155.839 16.0615 155.977 16.1348 156.091 16.2812C156.205 16.4277 156.302 16.5661 156.384 16.6963C156.384 16.9242 156.376 17.3311 156.359 17.917C156.359 18.5029 156.359 19.1296 156.359 19.7969C156.359 20.4642 156.359 21.099 156.359 21.7012C156.376 22.2871 156.384 22.694 156.384 22.9219C156.4 23.1172 156.433 23.4264 156.481 23.8496C156.547 24.2565 156.628 24.6797 156.726 25.1191C156.823 25.5423 156.953 25.9329 157.116 26.291C157.295 26.6328 157.515 26.8281 157.775 26.877C158.459 26.877 159.029 26.6247 159.484 26.1201C159.956 25.6156 160.347 24.9808 160.656 24.2158C160.965 23.4508 161.21 22.6289 161.389 21.75C161.584 20.8548 161.747 20.0166 161.877 19.2354C162.007 18.4541 162.121 17.8031 162.219 17.2822C162.333 16.7451 162.463 16.4521 162.609 16.4033L163.195 16.5254L164.562 25.9736C164.66 26.0225 164.742 26.0957 164.807 26.1934C164.872 26.291 164.929 26.3968 164.978 26.5107C165.043 26.6247 165.083 26.7386 165.1 26.8525C165.132 26.9665 165.148 27.0479 165.148 27.0967C165.116 27.2106 165.018 27.3327 164.855 27.4629C164.693 27.5931 164.554 27.6663 164.44 27.6826H164.343C164.326 27.6826 164.31 27.6826 164.294 27.6826C164.261 27.6338 164.213 27.5605 164.147 27.4629C164.099 27.349 164.042 27.235 163.977 27.1211C163.911 27.0072 163.854 26.8932 163.806 26.7793C163.773 26.6491 163.749 26.5677 163.732 26.5352C163.684 26.3724 163.627 26.1201 163.562 25.7783C163.513 25.4365 163.464 25.0622 163.415 24.6553C163.366 24.2321 163.317 23.7926 163.269 23.3369C163.236 22.8649 163.195 22.4173 163.146 21.9941C163.114 21.5547 163.073 21.1722 163.024 20.8467C162.992 20.5049 162.951 20.2526 162.902 20.0898C162.821 20.4642 162.707 20.9118 162.561 21.4326C162.414 21.9372 162.227 22.4743 161.999 23.0439C161.787 23.6136 161.543 24.1751 161.267 24.7285C160.99 25.2656 160.673 25.7702 160.314 26.2422C159.973 26.6979 159.59 27.0885 159.167 27.4141C158.744 27.7233 158.28 27.9186 157.775 28ZM166.467 18.6738L167.907 24.6064H168.2C168.249 24.0856 168.339 23.5322 168.469 22.9463C168.615 22.3604 168.811 21.7826 169.055 21.2129C169.299 20.627 169.584 20.0654 169.909 19.5283C170.251 18.9912 170.633 18.5192 171.057 18.1123C171.48 17.7054 171.952 17.3799 172.473 17.1357C173.01 16.8916 173.596 16.7695 174.23 16.7695C174.23 17.1602 174.068 17.502 173.742 17.7949C173.433 18.0879 173.059 18.3727 172.619 18.6494C172.18 18.9261 171.724 19.2191 171.252 19.5283C170.796 19.8376 170.438 20.2119 170.178 20.6514C169.901 21.0908 169.673 21.6035 169.494 22.1895C169.331 22.7591 169.193 23.3532 169.079 23.9717C168.981 24.5739 168.908 25.1842 168.859 25.8027C168.811 26.4049 168.77 26.9502 168.737 27.4385C168.64 27.585 168.534 27.7233 168.42 27.8535C168.322 27.9674 168.192 28.0244 168.029 28.0244C167.964 28.0244 167.883 28.0081 167.785 27.9756C167.688 27.9268 167.622 27.8372 167.59 27.707L165.832 18.6738H166.467ZM174.792 25.4609C174.792 24.9889 174.841 24.403 174.938 23.7031C175.052 23.0033 175.207 22.279 175.402 21.5303C175.614 20.7653 175.874 20.0003 176.184 19.2354C176.509 18.4704 176.875 17.7868 177.282 17.1846C177.689 16.5661 178.153 16.0697 178.674 15.6953C179.195 15.321 179.764 15.1338 180.383 15.1338C180.383 15.3617 180.285 15.5895 180.09 15.8174C179.911 16.029 179.699 16.2406 179.455 16.4521C179.227 16.6475 178.991 16.8428 178.747 17.0381C178.503 17.2171 178.332 17.388 178.234 17.5508C177.844 18.0553 177.494 18.6169 177.185 19.2354C176.875 19.8376 176.607 20.4642 176.379 21.1152C176.151 21.75 175.972 22.4092 175.842 23.0928C175.712 23.7601 175.646 24.4111 175.646 25.0459C175.646 25.1436 175.663 25.2982 175.695 25.5098C175.728 25.7051 175.769 25.9085 175.817 26.1201C175.882 26.3317 175.964 26.5189 176.062 26.6816C176.159 26.8281 176.265 26.9014 176.379 26.9014H176.452C176.468 26.9014 176.485 26.8932 176.501 26.877C176.94 26.3887 177.307 25.8597 177.6 25.29C177.893 24.7204 178.145 24.1344 178.356 23.5322C178.568 22.9137 178.747 22.2871 178.894 21.6523C179.04 21.0176 179.187 20.391 179.333 19.7725C179.382 19.5934 179.398 19.3249 179.382 18.9668C179.382 18.6087 179.398 18.2588 179.431 17.917C179.479 17.5752 179.569 17.2822 179.699 17.0381C179.829 16.7777 180.065 16.6475 180.407 16.6475C180.472 16.6475 180.546 16.6556 180.627 16.6719C180.725 16.6719 180.773 16.68 180.773 16.6963C181.376 17.9495 181.888 19.0156 182.312 19.8945C182.735 20.7572 183.093 21.4733 183.386 22.043C183.679 22.6126 183.915 23.0602 184.094 23.3857C184.273 23.7113 184.403 23.9635 184.484 24.1426C184.582 24.3053 184.647 24.4193 184.68 24.4844C184.712 24.5332 184.729 24.5739 184.729 24.6064C184.745 24.6715 184.761 24.7936 184.777 24.9727C184.794 25.1354 184.802 25.3145 184.802 25.5098C184.818 25.6888 184.826 25.8678 184.826 26.0469C184.842 26.2096 184.851 26.3154 184.851 26.3643C184.688 26.3643 184.509 26.3561 184.313 26.3398C184.118 26.3236 183.98 26.2178 183.898 26.0225L180.773 19.5283L180.505 19.2354C180.456 19.4144 180.358 19.7318 180.212 20.1875C180.082 20.6432 179.935 21.1315 179.772 21.6523C179.626 22.1569 179.488 22.637 179.357 23.0928C179.227 23.5485 179.138 23.8659 179.089 24.0449C178.991 24.2891 178.861 24.6309 178.698 25.0703C178.552 25.5098 178.365 25.9492 178.137 26.3887C177.909 26.8281 177.648 27.2106 177.355 27.5361C177.062 27.8617 176.737 28.0244 176.379 28.0244C176.086 28.0244 175.842 27.9349 175.646 27.7559C175.451 27.5605 175.288 27.3245 175.158 27.0479C175.028 26.7712 174.93 26.4863 174.865 26.1934C174.816 25.9004 174.792 25.6562 174.792 25.4609ZM185.778 27.4385C185.762 27.0153 185.721 26.3643 185.656 25.4854C185.591 24.5902 185.518 23.5892 185.437 22.4824C185.371 21.3594 185.298 20.1875 185.217 18.9668C185.152 17.7298 185.078 16.5498 184.997 15.4268C184.932 14.3037 184.859 13.3027 184.777 12.4238C184.712 11.5286 184.672 10.8695 184.655 10.4463V10.1289C184.655 9.75456 184.842 9.56738 185.217 9.56738C185.249 9.56738 185.298 9.57552 185.363 9.5918C185.428 9.5918 185.477 9.5918 185.51 9.5918C185.607 11.0078 185.697 12.3669 185.778 13.6689C185.86 14.971 185.941 16.265 186.022 17.5508C186.104 18.8366 186.193 20.1305 186.291 21.4326C186.389 22.7184 186.503 24.0612 186.633 25.4609C186.812 25.64 186.91 25.8516 186.926 26.0957C186.942 26.3236 186.95 26.5596 186.95 26.8037C186.95 26.9176 186.942 27.0479 186.926 27.1943C186.926 27.3245 186.901 27.4548 186.853 27.585C186.804 27.6989 186.722 27.8047 186.608 27.9023C186.511 27.9837 186.381 28.0244 186.218 28.0244C186.071 28.0244 185.965 27.9674 185.9 27.8535C185.852 27.7396 185.811 27.6012 185.778 27.4385Z" fill="#9A9A9A"/>
</svg>
